<?xml version="1.0" encoding="UTF-8"?>
<svg id="Layer_1" data-name="Layer 1" xmlns="http://www.w3.org/2000/svg" viewBox="0 0 127.33 127.05">
  <defs>
    <style>
      .cls-1 {
        fill: #4682a9;
      }
    </style>
  </defs>
  <path class="cls-1" d="M104.23.95H23.09c-5.97,0-10.86,4.85-10.86,10.78v103.54c0,5.93,4.88,10.78,10.86,10.78h81.14c5.97,0,10.86-4.85,10.86-10.78V11.73c0-5.93-4.89-10.78-10.86-10.78ZM47.4,47.7l-9.28,10.67c-.77.89-1.9,1.4-3.08,1.4s-2.31-.51-3.08-1.4l-3.37-3.87c-1.47-1.69-1.28-4.24.42-5.7,1.7-1.46,4.27-1.27,5.74.42l.29.33,6.2-7.13c1.47-1.69,4.04-1.88,5.74-.42,1.7,1.46,1.89,4.01.42,5.7ZM47.4,25.23l-9.28,10.67c-.77.89-1.9,1.4-3.08,1.4s-2.31-.51-3.08-1.4l-3.37-3.87c-1.47-1.69-1.28-4.24.42-5.7,1.7-1.46,4.27-1.27,5.74.42l.29.33,6.2-7.13c1.47-1.69,4.04-1.88,5.74-.42,1.7,1.46,1.89,4.01.42,5.7ZM94.65,56.38h-39.77c-2.25,0-4.07-1.81-4.07-4.04s1.82-4.04,4.07-4.04h39.77c2.25,0,4.07,1.81,4.07,4.04s-1.82,4.04-4.07,4.04ZM94.65,33.92h-39.77c-2.25,0-4.07-1.81-4.07-4.04s1.82-4.04,4.07-4.04h39.77c2.25,0,4.07,1.81,4.07,4.04s-1.82,4.04-4.07,4.04Z"/>
</svg>