<?xml version="1.0" encoding="UTF-8"?>
<svg id="Layer_1" data-name="Layer 1" xmlns="http://www.w3.org/2000/svg" viewBox="0 0 127.33 127.05">
  <defs>
    <style>
      .cls-1 {
        fill: #4682a9;
      }
    </style>
  </defs>
  <path class="cls-1" d="M63.66,1.55C29.61,1.55,2.01,29.15,2.01,63.2s27.6,61.66,61.66,61.66,61.66-27.6,61.66-61.66S97.72,1.55,63.66,1.55ZM91.86,91.4c-.98.98-2.26,1.46-3.54,1.46s-2.56-.49-3.54-1.46l-24.66-24.66c-.94-.94-1.46-2.21-1.46-3.54v-25.44c0-2.76,2.24-5,5-5s5,2.24,5,5v23.37l23.19,23.19c1.95,1.95,1.95,5.12,0,7.07Z"/>
</svg>