<?xml version="1.0" encoding="UTF-8"?>
<svg id="Layer_2" data-name="Layer 2" xmlns="http://www.w3.org/2000/svg" viewBox="0 0 41.9 68.61">
  <defs>
    <style>
      .cls-1 {
        fill: #cb7088;
      }

      .cls-2 {
        fill: #fff;
      }
    </style>
  </defs>
  <g id="Design">
    <g id="can1">
      <g>
        <rect class="cls-1" x="2.91" y="1.6" width="36.12" height="5.73" rx="1.74" ry="1.74"/>
        <g>
          <path class="cls-2" d="M37.28.93c-.04.09-.03.28.12.25.04-.11.09-.22.14-.32l-.26.07Z"/>
          <path class="cls-2" d="M38.07,1.73c.19-.09.52-.2.59-.52-.33.17-.31.03-.62.31-.13-.01-.19-.18-.13-.29-.07.07-.21-.13-.32.07.15.28.29.33.59.24.01.09-.07.14-.11.19Z"/>
          <path class="cls-2" d="M32.77,6.86l.07.04s-.05-.03-.07-.04Z"/>
          <path class="cls-2" d="M25.68,6.68c.05,0,.08-.04.08-.07-.05.02-.09.04-.08.07Z"/>
          <path class="cls-2" d="M24.47,6.31s.05.02.07.02c-.03-.03-.05-.05-.07-.02Z"/>
          <path class="cls-2" d="M32.77,6.86l-.19-.1c-.01.11.1.08.19.1Z"/>
          <path class="cls-2" d="M39.82,2.79c-.03-.05-.07-.09-.12-.13.03.04.05.08.07.13h.05Z"/>
          <path class="cls-2" d="M35.89,6.59h.06s.03-.08.05-.14l-.11.14Z"/>
          <path class="cls-2" d="M37.81,6.38s.11.25.15.37c-.04-.11-.04-.17-.03-.21-.03-.04-.07-.1-.12-.16Z"/>
          <path class="cls-2" d="M38.74,3.51l-.04-.07s.03.05.04.07Z"/>
          <path class="cls-2" d="M34.18,6.53s-.01-.08-.02-.1c0,.04,0,.07.02.1Z"/>
          <path class="cls-2" d="M34.5.28s0,.03,0,.05c.01-.03.02-.05,0-.05Z"/>
          <polygon class="cls-2" points="37.28 1.67 37.25 1.68 37.24 1.84 37.28 1.67"/>
          <path class="cls-2" d="M22.25,5.95s0,0,0,0c.06-.03.03-.03,0,0Z"/>
          <path class="cls-2" d="M4.07,5.58c-.12.03-.21.05-.29-.06-.08-.08-.17-.14-.31.03.11.03.45.15.6.03Z"/>
          <path class="cls-2" d="M39.8,2.89s.02.09.02.14c0-.07,0-.11-.02-.14Z"/>
          <path class="cls-2" d="M3.47,5.55h0l-.03.03s.02-.02.03-.03Z"/>
          <path class="cls-2" d="M17.15,6.12s.03.09.05.12c0-.03-.01-.06-.05-.12Z"/>
          <path class="cls-2" d="M20.95,6.52l-.09-.04s.07.03.09.04Z"/>
          <path class="cls-2" d="M15.17,6.52c-.05-.02-.07-.06-.14-.02,0,.01.01.02.02.03.03-.04.06-.06.12-.01Z"/>
          <path class="cls-2" d="M13.12,6.52s.03.04.04.06l.07-.02-.1-.04Z"/>
          <path class="cls-2" d="M28.26.41c.05.08.07.17.09.25-.03-.2.27-.27-.09-.25Z"/>
          <path class="cls-2" d="M39.66,2.83c.07,0,.11.02.13.06,0-.03-.02-.07-.03-.1-.04,0-.08,0-.1.03Z"/>
          <path class="cls-2" d="M15.09,8.74l-.33-.04c.09.03.21.04.33.04Z"/>
          <path class="cls-2" d="M13.51.45l.08-.03s-.06,0-.08.03Z"/>
          <path class="cls-2" d="M13.79,8.74c-.06-.1-.12-.16-.18-.19-.01.02-.03.04-.04.07l.22.12Z"/>
          <path class="cls-2" d="M28.35.67h0s0,0,0,0Z"/>
          <path class="cls-2" d="M30.5,0c-.31,0-.15.36-.21.57-.37.1-.17-.27-.3-.46-.23.1-.41.44-.58.42-.01-.06-.05-.08,0-.16-.25.29-.73.01-1.01.38-.02-.03-.03-.06-.04-.09.05.19.05.37.04.51-.14,0-.26.23-.31,0,.09,0,.09-.09.13-.17l-.15.1c-.13-.35.2-.12.2-.38-.28.11-.62.4-.84.3-.05-.34.51-.11.22-.42l.34.13c-.26-.54.21.04-.03-.54-.44-.1-.5.17-.94.07-.1.19.03.28-.07.47-.63.34-.5-.85-.96-.4-.12.23-.17.66-.5.43l.11-.38c-.43-.04-.25.55-.7.29.08-.15.34-.13.27-.17-.29-.3-.21.22-.43.22l-.05-.34c-.46.05-.96.3-1.47.36.03-.1.12-.21,0-.31-.64.17-1.37-.04-1.98-.24l-.24.29c-.05,0-.1-.13-.04-.19-.24-.11-.01.19-.13.3-.14.02-.18-.17-.09-.26-.42.25-1.21.54-1.66.22l.09-.09c-.35-.12-.39.6-.72.33l.06-.05c-.76-.13-1.59.14-2.17-.3-.11.42-.75-.19-.8.4-.43-.29-.31-.4-.92-.59-.16-.03-.24.37-.44.43v-.31s-.28.32-.28.32l-.15-.37-.19.08c.08.02.16.14.15.23-.29.14-.72-.21-.72-.37l-.7.26c.02-.12.13-.17.22-.25-.37.31-.07-.32-.41-.04.05.07-.02.18-.03.25-.17-.19-.56-.19-.84-.11l.05-.21c-.52-.05-1.09.1-1.67.1.21.1.16.47,0,.5l-.07-.33c-.11.2.18.12-.05.37-.22-.04-.15-.37-.02-.48l-.26.11c-.02-.1.05-.15.06-.27-.11.2-.45-.33-.61.02v-.1c-.59,0-.86.11-1.33.13,0,.28-.19.22-.33.45-.35-.09-.73-.31-1.15-.29-.29.14-.09.24-.22.41-.02-.26-.44-.23-.22-.42-.25.02-.41.03-.59.07-.12.04-.5.07-.94.3.13.07.25.09.21.19-.14.07-.39,0-.41-.12l.04-.04c-.44.36-1.01.55-1.52,1.02-.24.23-.45.51-.55.81-.1.28-.09.65.05.79l-.03-.03.28.59c-.04.27-.19-.16-.35.04.43.63-.06,1,.22,1.52-.39.25-.3,1.02.08,1.57.38.58.94.94,1.28,1.37l.03-.18c.29-.05.23.22.4.32.02-.14-.2-.24-.02-.28.24.07.5.1.75.13l.57.02c.31.02.62.06.93.12.62.11,1.24.27,1.86.35.45.05.25-.92.82-.5l-.16.33c.9-.4,1.85.01,2.73-.32-.05.08-.05.18-.14.17.19.24.69.01.69-.18.14.02.03.18.12.28.19.14.47-.31.57-.07.02.04-.05.08-.09.1.12-.12.57.03.45-.25.33.13.64-.12.9.04.17-.31.57.15.62-.29-.02.45.58.36.79.15-.07.14.18.14.1.33.24,0,.46-.09.42-.32.44.54.89-.44,1.14.26.71-.24,1.37-.41,2.01-.51-.02.45-.71.04-.68.52.61-.19.96-.57,1.56-.46.16.06-.09.2-.14.27.61-.19,1.17.04,1.71-.2,0,.04-.06.09-.11.12.11-.01.25.07.24-.14l-.1.06c-.17-.3.42-.62.44-.78-.18.59.53.15.25.89.07-.04.16-.14.14-.27.1.04.14.12.03.28.38-.11.25-.33.59-.32,0,.1-.07.14-.11.25.17-.19.35-.39.64-.3-.02.06.02.14-.07.14.5-.03.85-.52,1.4-.33-.16.43.19.14.22.52l.3-.11-.12-.18c.26,0,.49-.27.71-.14l-.19.15.49-.07-.27-.14c.26-.19-.03-.47.32-.37-.07.04.26,0,.39.22h0c.13-.12.26-.24.45-.15.05.12-.04.41,0,.49.13-.31.61-.09.77-.42-.05.08-.06.27-.04.31l.11-.25c.12.08.14.12.12.28.36.05-.11-.47.31-.27-.03.02-.02.06-.09.1.43.11.83-.16,1.23-.04.12.38-.35.09-.21.41.57-.07,1.18-.45,1.73-.36l-.1-.04c.08-.53.41.26.69.01-.07.04-.09.29-.07.24.38.09.77-.13,1.34-.3l-.07.14c.22.12.59.07.83.13.07-.14.21-.11.13-.31.74.78,1.41-.42,2.07.23-.08,0-.19.12-.12.12l.56-.13c-.04-.23-.07-.14-.19-.32.07-.14.23-.24.37-.24-.25.15,0,.37.11.5-.02-.07.02-.15,0-.22.29.41.05-.46.45-.19l-.02.12c.15-.06.29-.22.45-.19.07.27-.16.12-.17.34.23-.02.44-.49.68-.27-.09.09-.26.1-.36.18.27.31.33.22.55.23h-.02c.18,0,.36,0,.55-.04-.05,0-.11-.01-.16-.02.05-.4.16-.49.31-.6.14-.1.32-.24.26-.54.07.59.15.22.37.43.15-.05.35-.17.38-.08-.08-.33.41-.33.18-.81.1,0,.07-.27.3-.17-.02-.37-.18.06-.3,0-.11-.28-.02-.54.07-.76.09-.23.16-.48-.07-.74-.19-.45-.52-.53-.68-.95.16-.14.36.12.36.12.14-.22.13-.4-.02-.65.09.04.16-.02.25-.12-.08-.22-.36-.06-.32-.36.12,0,.31,0,.44.09-.17-.26-.45-.42-.67-.58.1-.16.31-.02.45.03-.22-.27-.66-.58-.9-.41.03.06.05.13.07.19-.08-.06.11-.21.21-.19.35.05.18.35.1.41-.05-.03-.1-.07-.16-.1-.16.25-.06.34.11.46.16.11.38.27.41.46-.15-.02-.29-.03-.44-.03.14.06.27.15.4.26-.1.09-.33.13-.4,0-.19.2.16.17-.07.36-.04.02-.06.01-.07,0l.12.21c-.09-.04-.29.03-.23-.09-.24.38.31.61,0,.75l-.03-.03c.14.52.31.05.66.44l-.75.26.31.05c-.01.05-.03.16-.16.14.21.2.13-.03.33.08-.14.13-.1.31-.11.45,0,.14-.07.26-.3.21.2.15.23-.17.32.13-.51-.12-.02.32-.37.39-.17-.21.01-.26-.27-.25.16.17.08.24-.04.25-.12.02-.26-.02-.28.05.2.3-.2.32-.43.45-.01-.06-.11-.09-.3-.14-.2-.05-.44-.1-.6-.17v-.06c-.05.37-.37.3-.61.37,0-.22.05-.31.18-.4h-.22c-.05.12-.12.18-.26.22l.06-.27c-.29.02-.59.32-.97.14-.02.26.3.71-.1.88-.01-.14-.03-.38.07-.43-.03.02-.12.11-.19.06l.16-.23c-.17-.1-.09.19-.23.17,0-.2-.1-.14-.08-.3.04-.02.12.08.17,0-.16-.04-.34-.15-.4-.3.01.11,0,.27-.11.29-.29.01-.1-.24-.27-.34-.07.14-.26,0-.26.29-.09,0-.1-.14-.14-.22-.15.13-.71.04-.54.35l.04.02h-.02s0,.01,0,.01h0c-.5.29-1.03-.17-1.53-.04v-.1c-.29.11-.66.07-.87.28-.09,0-.21-.18-.17-.3-.23.07-.25.19-.58.02.23-.17-.08-.15.23-.13-.29-.09-.36-.24-.67.03.11-.25-.22-.32-.36-.24l.21.18c-.16.04-.29.01-.43,0l.08-.33c-.6-.4-1.08.69-1.54.01-.16.23.33.16.18.44-.28-.04-.56-.52-.65-.52-.38-.18-.35.49-.75.36.05.12.1.44-.2.55-.28-.04-.34-.5-.16-.59.07-.01.1.03.1.07.09-.04.21-.09.1-.22l-.04.12c-.14-.12-.52-.11-.43-.3-.21.11-.09.19.07.26-.35-.17-.55,0-.92-.12.06.07.11.2.05.2-.53-.15-.24.23-.6.28-.21-.18.07-.43-.29-.28-.22-.12-.05-.31.04-.41-.33.23-.62-.15-.81-.19l.17-.1c-.1.06-.19.06-.28.05l.1.24c-.1-.04-.19-.04-.19-.14-.11.16.08.39-.13.61-.14-.12-.42.13-.46-.19.43.11-.05-.32.32-.37-.07.04-.16.04-.26,0-.02-.04.01-.07.04-.08-.41-.28-.19.36-.62.35.05-.18-.1-.34-.17-.3.17,0,.08.3-.08.43-.27-.14-.3.1-.44.09l.16.06c-.06.18-.19.15-.38.21-.02-.14.17-.1.11-.16-.21.31-.48-.32-.77-.11-.14-.12-.01-.33-.13-.41-.33.23-.36-.24-.71-.05.1.24.12.18-.13.41l.57-.17-.37.35c.17,0,.36-.15.47-.11-.17.19-.16.14-.07.33-.24-.36-.47.21-.74-.03v-.59c-.4-.26-.72.3-1.25.15l.17.1c-.07.23-.33.03-.5.13.02-.2-.09-.27-.17-.39,0,.15-.39-.01-.44.38l-.24-.26c-.43-.11-.49.56-.91.5.12-.21-.06-.35.21-.51-.14,0-.26-.04-.26.1-.08-.12-.38.27-.51.08-.06.09-.08.29-.23.28-.02-.04,0-.1,0-.1,0,.1-.24.13-.11.35-.43-.62-1.19.04-1.56-.48-.3.07-.67.13-.94.14.02-.06,0-.1.05-.08-.38-.18-.23.57-.66.36-.22-.32.23-.17.09-.29-.06-.65-.52.09-.81-.29l.07-.04c-.22-.22-.54.25-.9.2,0,0,.02-.06,0-.1-.25.33-.71.44-1.06.53.11-.25.16-.13.09-.39-.16.04.05.41-.27.49-.1-.14-.33-.26-.36-.54h.29c-.15-.37-.38,0-.53-.06l.02-.16c-.45.05-.46.44-.94.42l.05.12c-.26.39-.22-.22-.48.07l-.08-.39c-.17.1-.61.38-.92.46.18-.29.54-.44.77-.62-.17,0-.59.03-.68.22.07-.04.16-.13.23-.07-.21.31-.49.46-.83.46.09-.77-1.02-.18-.87-.81-.15.11-.28,0-.33-.13-.05-.14-.02-.27-.06-.37-.56.24-.03-.07-.63.02-.05-.11-.04-.15,0-.18l.37-.5c.18-.12.13.16.27.14.05-.36.26-.15.42-.39-.22.05-.31-.13-.23-.33l-.28.29c-.33-.51.51-.44.19-.95l.19.16c-.06-.13-.06-.37-.1-.61-.05-.09-.13-.12-.34-.27.07,0,.23.05.27.09.06-.06-.01-.2.03-.36.03-.16.17-.29.3-.16v.15s.04-.29.13-.14c0,.06-.05.15,0,.16.06-.05.31-.26.46-.17l-.13.17c.61.2.94-.41,1.45-.51,0,.44.48.58.72.65v.06c.7.05,1.2-.36,1.85-.54.41.48,1.38.2,2.04.47-.1-.08.02-.34.13-.39.15.09.43-.31.4.1h-.05c.12.39.43.28.68.29l.04-.53c.65.77,1.69-.28,2.04.41.16-.13.35-.13.5-.26v.28c.42.07.64.11,1.17.04l-.11.2c.3.02.38-.82.66-.83l.08.42c.53,0,1.06.36,1.58-.02,0,.06-.02.18-.11.2.25.01.96.29.87-.29,0,.38.54.04.83-.13l-.04.28c.24-.36.25-.45.58-.55.08.04.07.22-.04.15.26.15.21-.26.53-.12l-.12.18c.27.02.25-.07.4-.28.17-.11.52.07.56.32.04-.15.19-.36.35-.29.02.1-.04.15-.07.18.45.19.68-.32.99-.05,0,.09.03.14.05.17-.36,0-.65-.02-.62-.04,0,.26.29.3.06.66.23-.19.63-.61.92-.49.01.02.03.05.04.09l-.03.03c.07.03.12,0,.18-.04.09.04.15.07.24.08.03.21.33.11.48.12-.01-.28.18-.24,0-.47.02.02-.03.03-.12.05-.02,0-.05.01-.06.03v-.02c-.09,0-.21.01-.35.02.11-.14.23-.26.4-.11.07-.18.16-.37.2-.45.2.39.58.6.64.85.44-.16,1.05-.1,1.32-.63.13-.07.15.15.19.23-.07.05-.16.04-.2.12.25-.14.75-.05.81-.42.32.17-.18.34.26.28l-.06.11c.86.59,1.4-.94,2.35-.18-.07-.05-.1-.07-.11-.13,1.09.33,2.24-.31,3.31.22.3.11.34-.13.52-.31l.07.3.32-.35c.45-.26.78.74,1.35.26l-.07-.2c.21.04.65-.12.62.11.02-.04.07-.21.15-.11v.16s.51-.27.51-.27c.39.11-.06.63.51.66.21-.06.6-.46.52-.57-.09,0-.22-.1-.22-.26l.19-.08c.04-.47.18-.94-.29-1.27l-.33.28-.11-.23h.28c-.16-.23-.26-.04-.37.09-.03-.12-.07-.2-.14-.25l-.33.44c-.04-.18.15-.36-.07-.46-.15.21.15.41-.11.54-.16-.21-.11-.38-.3-.2-.03-.12.01-.2.09-.25-.17.14-.44.06-.52.31-.17-.26-.56.07-.54-.37-.05.11-.29.35-.44.36.28-.53-.57-.03-.5-.6-.21.47-.74.21-1.11.47.02-.04.06-.11.09-.09-.21-.04-.26-.18-.4-.27-.03.39-.35.48-.52.72-.25-.38.15-.46.07-.82.01.32-.44.32-.35.58-.19-.23-.17-.11-.26-.44-.03.49-.18.08-.34.38-.28-.24-.07-.46-.38-.31C30.23.17,30.5,0,30.5,0ZM23.24.85h0c.06-.01.12-.02.15-.02-.03,0-.07.01-.15.02ZM22.63.85c.07.01.17.01.26.01.02.1,0,.2-.06.19.03-.07-.11-.12-.2-.2ZM23.92,2.8c-.1.04-.13-.02-.14-.07.05,0,.1-.01.17-.03v-.03c0,.05,0,.1-.03.14Z"/>
          <path class="cls-2" d="M24.09,2.43s.02-.02.04-.02c-.02-.02-.04-.05-.06-.06l-.03.09h.05Z"/>
          <path class="cls-2" d="M32.85,6.91h-.01s.02.02.03.03c0-.01,0-.02-.01-.03Z"/>
          <polygon class="cls-2" points="14.19 .31 14.19 .38 14.25 .32 14.19 .31"/>
          <path class="cls-2" d="M36.22,7.87s.02.05.04.07c0-.02-.02-.04-.04-.07Z"/>
          <path class="cls-2" d="M37.8,7.87c.1,0,.2.02.3.02-.14,0-.23-.02-.3-.02Z"/>
          <path class="cls-2" d="M39.18,7.2s-.05-.07-.07-.1h0s.08.1.08.1Z"/>
          <path class="cls-2" d="M21.03,8.4s-.03,0-.04.01c-.1.05-.03.03.04-.01Z"/>
          <path class="cls-2" d="M26.31,7.75c-.06.05-.11.1-.17.13.09.02.17.03.17-.13Z"/>
          <polygon class="cls-2" points="15.12 8.74 15.12 8.74 15.09 8.74 15.12 8.74"/>
          <path class="cls-2" d="M25.9,7.87c.09.06.17.04.25,0-.08-.02-.17-.05-.25,0Z"/>
          <path class="cls-2" d="M39.14,1.49l-.05-.06s-.03.02-.04.03l.09.04Z"/>
          <path class="cls-2" d="M39.05,1.45l-.09-.03s.06.05.09.03Z"/>
          <path class="cls-2" d="M38.78,1.36c.06.02.13.03.19.06-.05-.04-.1-.1-.19-.06Z"/>
          <path class="cls-2" d="M39.77,3.45l.1.02s-.05-.02-.1-.02Z"/>
          <path class="cls-2" d="M39.8,3.9c.02-.11.22-.27.15-.42h-.08c.15.06-.24.32-.07.42Z"/>
          <path class="cls-2" d="M38.53,5.72c.03-.08.06-.19.09-.32-.11.07-.25.15-.28-.02-.33.45.25-.04.19.34Z"/>
          <path class="cls-2" d="M38.07,6.36c.05-.13-.12-.11-.15-.16.02.11.01.15.15.16Z"/>
          <path class="cls-2" d="M30.22,6.68l.02-.26c-.16.04,0,.1-.02.26Z"/>
          <polygon class="cls-2" points="28.61 8 28.76 8.16 28.83 7.93 28.61 8"/>
          <polygon class="cls-2" points="27.65 6.18 27.72 6.14 27.46 6.24 27.65 6.18"/>
          <path class="cls-2" d="M13.48,6.27l.05.31c.11-.06.13-.41-.05-.31Z"/>
          <path class="cls-2" d="M7.36,6.59c-.07-.16-.24-.26-.34-.1.14.02.27.14.34.1Z"/>
          <polygon class="cls-2" points="12.57 2.84 12.45 2.95 12.68 2.86 12.57 2.84"/>
        </g>
      </g>
      <g>
        <rect class="cls-1" x="1.52" y="7.32" width="38.9" height="60.29" rx="10.79" ry="10.79"/>
        <g>
          <path class="cls-2" d="M29.63,66.95c-.09.09-.04.29.21.23l.17-.34-.38.11Z"/>
          <path class="cls-2" d="M31.37,67.41c.28-.2.55-.55.3-.8-.22.36-.31.24-.57.66-.25.08-.45-.04-.42-.17-.08.09-.39-.05-.52.16.34.25.79.22,1.18-.07.11.06.03.16.02.22Z"/>
          <path class="cls-2" d="M40.88,46.51l-.04.16s.03-.1.04-.16Z"/>
          <path class="cls-2" d="M41.06,30.7c0,.12.04.17.07.18-.02-.11-.04-.2-.07-.18Z"/>
          <path class="cls-2" d="M41.43,28.01c0,.06-.02.11-.02.16.03-.06.05-.12.02-.16Z"/>
          <path class="cls-2" d="M40.88,46.51l.1-.42c-.11-.03-.08.22-.1.42Z"/>
          <path class="cls-2" d="M34.3,65.6c-.07.05-.11.11-.15.17l.16-.12s0-.03-.01-.05Z"/>
          <path class="cls-2" d="M41.15,53.47v.13s.08.07.14.11l-.14-.23Z"/>
          <path class="cls-2" d="M41,58.95c.03-.13-.24-.22-.35-.29.1.09.14.19.15.31.05.01.12,0,.2-.02Z"/>
          <path class="cls-2" d="M35.88,65.97s-.07.08-.11.12c.03-.03.08-.08.11-.12Z"/>
          <path class="cls-2" d="M41.21,49.65s.08-.03.1-.05c-.04,0-.07.02-.1.05Z"/>
          <path class="cls-2" d="M23.43,66.3s0,.03,0,.05c.03-.03.04-.05,0-.05Z"/>
          <path class="cls-2" d="M29.63,67.69l-.09.02c0,.05-.02.11-.02.16l.1-.17Z"/>
          <path class="cls-2" d="M41.79,23.07s0,.01,0,.02c.03.13.03.06,0-.02Z"/>
          <path class="cls-2" d="M5.9,8.03c.61-.08-.59.74.27.54-.13-.05.42-.77-.27-.54Z"/>
          <path class="cls-2" d="M34.43,65.57c.06-.04.11-.08.17-.11-.08.04-.14.07-.17.11Z"/>
          <path class="cls-2" d="M6.16,8.57h0s.09-.02.09-.02c-.04,0-.06.01-.09.02Z"/>
          <path class="cls-2" d="M39.56,11.39s-.03.11-.03.18c.02-.02.04-.06.03-.18Z"/>
          <path class="cls-2" d="M41.22,20.17l.04-.21c-.03.08-.03.15-.04.21Z"/>
          <path class="cls-2" d="M35.86,8.34c-.09-.08-.11-.14-.27-.19,0,.02.01.04.03.06.07,0,.15.03.25.14Z"/>
          <path class="cls-2" d="M31.28,6.65s.05.05.08.07c.05,0,.11,0,.16,0l-.24-.08Z"/>
          <path class="cls-2" d="M9.85,66.1c.07.1.1.2.12.29-.01-.21.58-.13-.12-.29Z"/>
          <path class="cls-2" d="M34.37,65.74c-.01-.07,0-.12.05-.17l-.12.08s.02.08.06.09Z"/>
          <path class="cls-2" d="M34.53,10.13c-.18-.12-.34-.26-.53-.35.15.09.33.24.53.35Z"/>
          <path class="cls-2" d="M2.66,38.12l.03.17c0-.06,0-.12-.03-.17Z"/>
          <path class="cls-2" d="M32.24,9.11c-.08-.12-.18-.21-.3-.28-.03.01-.06.02-.09.05l.39.22Z"/>
          <path class="cls-2" d="M9.97,66.4h0s0,0,0,0Z"/>
          <path class="cls-2" d="M14.52,66.02c-.69,0-.33.36-.47.57-.83.11-.38-.27-.66-.46-.51.09-.93.45-1.28.41-.02-.06-.09-.09-.01-.16-.51.29-1.43-.09-2.07.12-.03-.04-.05-.08-.05-.11.05.2.02.39-.03.52-.29-.07-.6.09-.64-.17.18.05.22-.04.32-.09l-.33.02c-.17-.4.44-.01.51-.26-.3,0-.63,0-.94-.05-.31-.03-.61-.09-.79-.24.05-.32,1.02.29.58-.2l.6.36c-.32-.69.37.18.11-.53-.77-.38-.97-.18-1.7-.67-.26.06-.08.28-.35.34-.65-.18-.74-.53-.78-.81-.04-.29-.07-.5-.54-.65-.31,0-.73.28-1.01-.4l.43-.09c-.54-.65-.77,0-1.12-.89.22.04.51.47.47.34-.11-.65-.42-.2-.7-.57l.24-.27c-.55-.72-1.19-1.55-1.54-2.54.11.03.26.17.3-.09-.54-1.21-.34-2.64-.12-4.07l-.29-.53c0-.12.13-.23.19-.09.11-.54-.19-.03-.3-.29-.02-.31.17-.4.26-.21-.25-.95-.54-2.7-.22-3.69l.09.19c.12-.78-.6-.88-.33-1.6l.05.14c.13-1.69-.14-3.55.3-4.83-.42-.24.19-1.67-.4-1.78.29-.96.4-.69.59-2.04.03-.36-.37-.54-.43-.99h.31s-.32-.62-.32-.62l.37-.32-.08-.42c-.02.17-.14.36-.23.33-.14-.66.21-1.6.37-1.61l-.26-1.55c.12.03.17.29.25.5-.31-.83.32-.15.04-.91-.07.1-.18-.05-.25-.07.19-.38.19-1.24.11-1.88l.21.12c.05-1.15-.1-2.43-.1-3.72-.1.46-.47.36-.5-.02l.33-.15c-.2-.24-.12.4-.37-.11.04-.48.37-.32.48-.05l-.11-.59c.1-.03.15.1.27.14-.2-.24.33-1.01-.02-1.36l.1-.03c0-1.29-.11-1.88-.13-2.93-.28-.02-.22-.43-.45-.75.09-.77.31-1.63.29-2.56-.14-.65-.24-.19-.41-.49.26-.05.23-.98.42-.5-.02-.56-.03-.92-.07-1.31-.04-.37-.08-.78-.15-1.46-.11.13-.16.29-.25.2-.03-.24.13-.54.26-.49l.02.06c-.1-.74.24-1.56.67-2.23.1-.17.21-.34.3-.5.11-.15.22-.31.3-.46.16-.31.31-.59.34-.9v.07c.1-.39.27-.75.44-1.13.36-.41-.04.38.32.16.5-1.26,1.42-1.37,2.09-2.18.28.05.55-.01.84-.14.31-.09.61-.29.94-.44.66-.31,1.4-.6,1.96-.43l-.09-.17c.25-.21.35.05.55.06-.04-.13-.32-.11-.16-.23,1.11-.25,2.56-.12,3.93-.02,1.38.11,2.77.27,4.14.35,1,.05.57-.92,1.83-.5l-.36.33c2.01-.4,4.12.01,6.09-.32-.12.08-.12.18-.31.17.42.24,1.54.01,1.55-.18.31.02.07.18.26.28.42.14,1.05-.31,1.27-.07.04.04-.12.08-.19.1.32-.13,1.14.08.94-.22.33.07.64.08.94.11.3,0,.59.04.82.2.43-.24,1.02.47,1.28.1-.2.39.91.77,1.37.84-.19.05.24.31,0,.39.41.22.77.45.86.2.2.46.56.68.93.88.34.21.62.44.53.84,1.07.92,1.84,2.07,2.3,3.31-.41.07-.51-1.35-.95-1.1.62,1,1.19,1.64,1.23,2.88-.05.32-.2-.16-.31-.25.31,1.14.03,2.49.29,3.67-.04,0-.09-.13-.12-.26.01.24-.07.55.14.52l-.06-.23c.3-.38.62.94.78.98-.59-.4-.15,1.19-.89.55.04.16.14.35.27.32-.04.23-.12.31-.28.07.11.85.33.55.33,1.32-.1,0-.14-.16-.25-.24.19.39.39.78.3,1.43-.06-.04-.14.04-.14-.16.03,1.12.52,1.9.33,3.13-.43-.36-.14.42-.52.48l.11.66.18-.26c0,.58.27,1.09.14,1.58l-.15-.43.07,1.08.14-.61c.19.58.47-.06.37.71-.04-.16,0,.58-.22.88h0c.12.28.24.58.15,1-.12.11-.41-.09-.49-.02.31.28.09,1.35.42,1.71-.08-.12-.27-.13-.31-.09l.25.24c-.08.27-.12.31-.28.26-.05.8.47-.26.27.7-.02-.07-.06-.04-.1-.2-.11.96.16,1.85.04,2.73-.38.26-.09-.77-.41-.47.07,1.27.45,2.63.36,3.86l.04-.23c.53.17-.26.92-.01,1.54-.04-.15-.29-.2-.24-.16-.09.84.13,1.72.3,3l-.14-.16c-.12.5-.07,1.31-.13,1.84.14.16.11.47.31.28-.78,1.65.42,3.15-.23,4.62,0-.18-.12-.42-.12-.28l.13,1.25c.23-.1.14-.16.32-.43.14.16.24.51.24.82-.15-.56-.37,0-.5.25.07-.04.15.04.22.02-.41.65.46.11.19,1l-.12-.05c.06.33.22.64.19,1-.27.15-.12-.35-.34-.38.01.5.52,1,.22,1.45-.06-.21-.05-.51-.13-.73-.31.5-.25.54-.31.89v-.03c-.05.27-.1.53-.2.78l.12-.19c.3.33.28.66.23.99-.09.33-.19.67-.1,1.14-.2-.91-.2-.2-.47-.35-.13.18-.34.43-.39.32.1.44-.37.51-.29,1.12-.1-.02-.18.36-.36.17-.14.47.2-.02.29.07,0,.42-.36.75-.68,1.11-.36.34-.71.71-.93,1.25-.53.8-.45,1.17-1.1,1.86-.34.06,0-.44,0-.44-.47.19-.77.38-1.1.72.04-.12-.08-.13-.25-.16-.31.19-.05.42-.56.51.03-.14.05-.34.16-.51-.33.27-.64.61-1.04.83-.17-.12.16-.33.26-.49-.21.12-.5.27-.74.42-.25.13-.46.27-.5.42h.34c-.18.07-.15-.19-.04-.27.35-.3.61-.11.67-.02l-.28.17c.24.22.56.08.87-.13.31-.23.6-.56.9-.68l-.06.49c.16-.2.3-.41.43-.63.18.02.39.16.13.39.52-.08.29-.34.76-.38.06,0,.05.03.03.07l.31-.39c-.02.13.24.19-.03.32.87-.32.87-1.13,1.33-1.11l-.04.07c.73-.97-.13-.3.2-1.18.33.03.63.02.96,0l-.17-.28c.08-.09.25-.27.32-.17.1-.49-.15-.01-.16-.34.27-.17.45-.54.63-.84.15-.31.29-.57.54-.52-.12-.29-.41.43-.28-.2.57.06.2-.7.6-1.11.2.24-.12.69.3.25-.31-.44.39-1.01.41-1.5-.36-.09.04-1.02-.08-1.81.14.04.22-1.42.35-2.11l.06.02c-.37-.13-.3-.85-.37-1.38.22.02.31.11.4.4v-.49c-.12-.12-.18-.27-.22-.59l.27.12c-.02-.65-.32-1.32-.14-2.16-.26-.05-.71.67-.88-.22.14-.03.38-.07.43.17-.02-.08-.12-.27-.06-.43l.23.36c.1-.38-.19-.2-.17-.51.2,0,.14-.23.3-.18.02.08-.08.27,0,.38.04-.35.15-.76.3-.9-.11.03-.27,0-.29-.25-.01-.65.24-.22.34-.61-.14-.16,0-.58-.29-.59,0-.19.14-.23.22-.3-.13-.34-.04-1.58-.35-1.2l-.02.09s0-.03-.01-.06h0s0,0,0,0c-.29-1.11.17-2.31.04-3.41h.1c-.11-.66-.07-1.46-.28-1.93,0-.19.18-.46.3-.38-.07-.5-.19-.56-.02-1.28.17.51.15-.17.13.52.09-.65.24-.8-.03-1.5.25.24.32-.49.24-.8l-.18.46c-.04-.35-.01-.65,0-.96l.33.17c.4-1.34-.69-2.41-.01-3.43-.23-.35-.16.73-.44.41.04-.61.52-1.26.52-1.45.18-.84-.49-.79-.36-1.67-.12.11-.44.22-.55-.44.04-.62.5-.76.59-.37.01.15-.03.22-.07.21.04.2.09.46.22.22l-.12-.08c.12-.31.11-1.15.3-.95-.11-.46-.19-.2-.26.15.17-.79,0-1.23.12-2.04-.07.13-.2.25-.2.12.15-1.19-.23-.52-.28-1.33.18-.46.43.16.28-.65.12-.5.31-.11.41.09-.23-.74.15-1.38.19-1.81l.1.39c-.06-.23-.06-.42-.05-.62l-.24.22c.04-.23.04-.42.14-.42-.16-.24-.39.18-.61-.29.12-.31-.13-.93.19-1.03-.11.96.32-.11.37.71-.04-.16-.04-.35,0-.58.04-.03.07.03.08.1.28-.92-.36-.42-.35-1.37.18.12.34-.22.3-.38,0,.38-.3.18-.43-.17.14-.61-.1-.66-.09-.98l-.06.36c-.18-.12-.15-.43-.21-.85.14-.04.1.39.16.23-.31-.47.32-1.07.11-1.73.11-.32.33-.03.4-.32-.27-.8.22-.91-.11-1.75-.2.29-.13.31-.45-.23.11.44.28.89.34,1.35-.12-.29-.29-.57-.45-.84.07.4.26.84.22,1.09-.22-.4-.15-.36-.34-.15.17-.29.09-.56-.03-.83-.12-.27-.21-.55-.18-.88l.58-.11c0-.52-.17-.95-.43-1.37-.24-.43-.54-.85-.76-1.46l.09.42c-.28-.05-.37-.69-.68-.99.19-.07.11-.33.12-.55-.09.09-.56-.78-.93-.63-.04-.21-.11-.4-.17-.6-.31-.43-.62-.55-.93-.63-.32-.08-.6-.18-.97-.48.36.01.1-.38.72-.08-.25-.23-.48-.42-.56-.32-.08-.23-.89-.33-1.06-.62-.16,0-.31.16-.61-.04-.02-.05.05-.09.05-.09-.05.08-.57-.13-.39.2-.15-.24-.39-.44-.66-.61-.29-.14-.62-.25-.94-.36-.66-.17-1.3-.29-1.7-.6-.36-.03-.75-.04-1.14-.02-.39,0-.76.01-1.06.02.04-.06,0-.1.12-.08-.84-.18-.52.57-1.48.36-.49-.32.51-.17.2-.29-.13-.65-1.16.09-1.8-.29l.16-.04c-.49-.22-1.2.25-2.01.2,0,0,.04-.06,0-.1-.55.33-1.59.44-2.37.53.24-.25.35-.13.2-.39-.35.04.1.41-.59.49-.23-.14-.73-.26-.79-.54h.65c-.33-.37-.85,0-1.19-.06l.04-.16c-1,.05-1.02.44-2.09.42l.11.12c-.59.39-.49-.22-1.08.07l-.18-.39c-.39.1-1.36.38-2.06.46.39-.29,1.21-.44,1.71-.62-.39,0-1.31.03-1.51.22.16-.04.35-.13.5-.07-.47.31-1.09.46-1.86.46.13-.76-1.96-.21-2.65-.73-1.43.42-2.95.41-4.52,1.27.82.25-.44.25-.04.74-.31.23-.44.3-.49.29-.41.09-.78.26-1.18.4-.34.04.22-.34.11-.42-.75.5-.46.02-1.03.3.24.08-.03.44-.46.74.23-.11.48-.2.72-.29-.36.53-.61.64-.89.75-.27.11-.58.23-.82.85l.09-.44c-.35.56-1.39,2.04-1.16,2.84-.11.07-.33.14-.25-.13-.36.7-.51,1.57-.59,2.38-.07.82-.08,1.57-.24,2.15l-.14-.12c.03.29.25.51.11.83-.06-.02-.15-.1-.16.02.05.14.26.69.17,1.03l-.17-.29c-.2,1.36.41,2.08.51,3.22-.44,0-.58,1.07-.65,1.6l-.06-.02c-.05,1.58.36,2.69.54,4.15-.48.91-.2,3.08-.47,4.54.08-.22.34.04.39.3-.09.34.31.95-.1.89v-.12c-.39.26-.28.96-.29,1.51l.53.09c-.77,1.44.28,3.77-.41,4.56.13.35.13.78.26,1.12l-.28-.02c-.07.96-.11,1.44-.04,2.63L0,43.38c-.02.67.82.85.83,1.47l-.42.19c0,1.17-.36,2.36.02,3.51-.06-.02-.18-.05-.2-.24-.01.55-.29,2.13.29,1.93-.38.01-.04,1.21.13,1.84l-.28-.1c.36.53.45.55.55,1.3-.04.18-.22.15-.15-.08-.15.59.26.46.12,1.17l-.18-.27c-.02.61.07.56.28.89.11.38-.07,1.15-.32,1.24.16.09.35.4.3.78-.09.05-.16-.08-.19-.15-.16,1.11.44,1.56.29,2.33-.09.03-.12.09-.13.16-.16-.85-.22-1.55-.18-1.49-.27.02-.21.74-.65.21.14.28.35.66.52,1.03.19.38.38.75.4,1.1-.02.04-.03.08-.06.11l-.05-.06c0,.17.1.29.18.4.04.22.06.37.13.57-.19.16.23.8.38,1.13.24-.15.4.28.42-.22,0,.06-.06-.04-.17-.25-.03-.04-.06-.1-.09-.12h.03c-.11-.19-.25-.46-.36-.78.22.21.44.42.47.83.24.08.49.17.61.22-.13.58.18,1.49.09,1.72.72.82,1.79,1.87,2.63,1.87.28.12.18.32.22.46-.17-.06-.33-.19-.45-.19.29.12.64.4.99.57.35.17.67.28.82.15.58.5-.55.12.41.52l-.18.04c.4.37.83.58,1.28.67.44.12.89.12,1.33.12.89,0,1.73-.11,2.83.29-.15-.05-.22-.07-.25-.13,2.43.34,4.99-.31,7.38.22.68.11.75-.13,1.17-.31l.15.3.71-.35c1-.26,1.74.74,3.01.26l-.16-.2c.46.04,1.45-.12,1.37.11.05-.04.15-.21.33-.11v.16s1.14-.27,1.14-.27c.87.11-.14.63,1.13.66.47-.06,1.34-.46,1.17-.57-.19,0-.49-.1-.5-.26l.43-.08c.08-.47.41-.94-.65-1.27l-.74.28-.24-.23h.62c-.35-.23-.58-.04-.83.09-.06-.12-.16-.2-.31-.25l-.73.44c-.09-.18.33-.36-.16-.46-.34.21.33.41-.24.54-.35-.21-.25-.38-.66-.2-.06-.12.03-.2.19-.25-.37.14-.98.06-1.17.31-.37-.26-1.25.07-1.21-.37-.12.11-.65.35-.99.36.62-.53-1.27-.03-1.11-.6-.46.47-1.66.21-2.47.47.05-.04.13-.11.21-.09-.46-.04-.59-.18-.88-.27-.06.39-.77.48-1.15.72-.56-.38.34-.46.16-.82.03.32-.97.32-.78.58-.43-.23-.37-.11-.59-.44-.08.49-.4.08-.75.38-.62-.24-.16-.46-.84-.31-.32-.15.28-.32.28-.32ZM2.65,59.55h0c.04.12.07.23.1.29-.03-.06-.05-.15-.1-.29ZM2.38,58.31c.01.15.04.34.07.55-.08.06-.2.04-.21-.09.07.06.08-.25.14-.45ZM1.34,61.67c-.14-.2-.11-.3-.07-.35.04.11.1.22.2.37.01,0,.03,0,.04.01-.06,0-.12,0-.17-.03Z"/>
          <path class="cls-2" d="M1.85,61.89s.04.04.06.08c0-.05,0-.1,0-.15-.04-.01-.08-.02-.12-.04.02.04.04.08.06.11Z"/>
          <path class="cls-2" d="M40.84,46.7v-.03s-.02.05-.03.06c.01-.02.02-.02.03-.03Z"/>
          <polygon class="cls-2" points="2.8 39.63 2.73 39.64 2.79 39.76 2.8 39.63"/>
          <path class="cls-2" d="M39.87,54.2s-.05.04-.07.1c.02,0,.04-.05.07-.1Z"/>
          <path class="cls-2" d="M39.78,57.4l-.12.42c.07-.18.1-.31.12-.42Z"/>
          <path class="cls-2" d="M39.25,59.67s.07.06.1.08h0s-.11-.08-.11-.08Z"/>
          <path class="cls-2" d="M39.34,20.34s0-.07-.01-.1c-.05-.23-.03-.07.01.1Z"/>
          <path class="cls-2" d="M39.99,32.12c-.05-.13-.1-.25-.13-.38-.02.21-.03.37.13.38Z"/>
          <polygon class="cls-2" points="34.58 10.17 34.59 10.16 34.53 10.13 34.58 10.17"/>
          <path class="cls-2" d="M39.87,31.19c-.06.21-.04.39,0,.55.02-.17.05-.37,0-.55Z"/>
          <path class="cls-2" d="M32.4,66.34l-.11.02s0,.03,0,.05l.11-.06Z"/>
          <path class="cls-2" d="M32.29,66.4l-.11.06c.05-.01.1-.03.11-.06Z"/>
          <path class="cls-2" d="M31.94,66.6l.23-.13c-.09.02-.2.04-.23.13Z"/>
          <path class="cls-2" d="M35.21,65.18l-.03-.1s0,.06.03.1Z"/>
          <path class="cls-2" d="M35.94,64.6c-.19.12-.57.16-.78.39l.02.08c.03-.21.69-.21.76-.48Z"/>
          <path class="cls-2" d="M39.51,62.25l-.52.7c.17-.07.4-.17.21.19.86-.79-.32.07.31-.9Z"/>
          <path class="cls-2" d="M40.66,59.77c-.07.48.15.04.21.08-.02-.32-.03-.4-.21-.08Z"/>
          <path class="cls-2" d="M41.06,40.83l.26.05c-.04-.35-.1,0-.26-.05Z"/>
          <polygon class="cls-2" points="39.74 37.23 39.58 37.57 39.81 37.73 39.74 37.23"/>
          <polygon class="cls-2" points="41.56 35.11 41.6 35.26 41.5 34.68 41.56 35.11"/>
          <path class="cls-2" d="M32.19,6.56l.04.34c.26,0,.4-.32-.04-.34Z"/>
          <path class="cls-2" d="M18.35,6.59c-.15-.16-.53-.26-.77-.1.31.02.61.14.77.1Z"/>
          <polygon class="cls-2" points=".27 36.02 .17 35.74 .25 36.26 .27 36.02"/>
        </g>
      </g>
    </g>
  </g>
</svg>