<?xml version="1.0" encoding="UTF-8"?>
<svg id="Layer_2" data-name="Layer 2" xmlns="http://www.w3.org/2000/svg" viewBox="0 0 332.52 338.18">
  <defs>
    <style>
      .cls-1 {
        fill: #fff;
        font-family: Chantal-MediumItalic, Chantal;
        font-size: 36px;
        font-style: italic;
        font-weight: 500;
        stroke: #fff;
        stroke-miterlimit: 10;
      }

      .cls-2 {
        fill: #514f65;
      }

      .cls-3 {
        letter-spacing: -.06em;
      }

      .cls-4 {
        fill: #202020;
      }

      .cls-5 {
        letter-spacing: -.02em;
      }
    </style>
  </defs>
  <g id="Design">
    <g id="YourDailyAdvice">
      <g>
        <rect class="cls-2" x="148.82" y="102.1" width="36.32" height="234.09" rx="15.84" ry="15.84"/>
        <g>
          <path class="cls-4" d="M169.3,334.86c-.27.17-.11.57.59.45l.45-.69-1.05.23Z"/>
          <path class="cls-4" d="M174.2,335.3c.36-.3.71-.67.88-1,.16-.34.12-.66-.23-.83-.51.84-.76.72-1.41,1.67-.69.26-1.27.1-1.2-.17-.22.2-1.09.02-1.42.49.49.19,1.04.24,1.62.17.56-.14,1.15-.36,1.67-.76.3.05.11.3.09.44Z"/>
          <path class="cls-4" d="M186.07,267.38l-.08.47c.04-.13.07-.29.08-.47Z"/>
          <path class="cls-4" d="M186.44,222.25c.02.34.08.49.14.5-.04-.32-.08-.58-.14-.5Z"/>
          <path class="cls-4" d="M187.16,214.55c-.02.17-.03.3-.04.45.06-.17.09-.35.04-.45Z"/>
          <path class="cls-4" d="M186.07,267.38l.21-1.21c-.22-.08-.16.62-.21,1.21Z"/>
          <path class="cls-4" d="M180.8,328.56c-.11.2-.17.39-.21.58.09-.17.18-.33.28-.49-.02-.03-.04-.05-.06-.09Z"/>
          <path class="cls-4" d="M186.61,287.27v.37c.08.11.17.21.27.3l-.27-.67Z"/>
          <path class="cls-4" d="M186.71,302.54c.02-.35-.54-.47-.78-.6.23.19.34.45.39.75.11,0,.23-.04.4-.16Z"/>
          <path class="cls-4" d="M184.4,326.81l-.12.43c.03-.11.09-.3.12-.43Z"/>
          <path class="cls-4" d="M186.73,276.35c.08-.03.16-.08.2-.14-.07,0-.14.05-.2.14Z"/>
          <path class="cls-4" d="M154.98,329.3s-.05.05-.07.07c.09.02.14,0,.07-.07Z"/>
          <path class="cls-4" d="M169.3,336.34l-.25.03c-.03.11-.05.21-.05.31l.3-.35Z"/>
          <path class="cls-4" d="M187.88,200.45s0,.04-.01.06c.06.37.05.16.01-.06Z"/>
          <path class="cls-4" d="M148.48,109.71c.59-.64.43.06.34.63-.09.58-.12,1.04.65.09-.14.05-.12-.54-.16-.94-.02-.38-.22-.64-.83.22Z"/>
          <path class="cls-4" d="M181.07,328.32c.09-.16.18-.32.29-.48-.15.21-.23.36-.29.48Z"/>
          <path class="cls-4" d="M149.47,110.43h0s.15-.19.15-.19c-.07.08-.1.13-.16.19Z"/>
          <path class="cls-4" d="M187.55,167.96c-.1.07-.17.2-.25.33.06-.01.13-.09.25-.33Z"/>
          <path class="cls-4" d="M186.75,192.16l.08-.6c-.05.24-.07.43-.08.6Z"/>
          <path class="cls-4" d="M186.75,155.39c.04-.33.12-.44.05-.88-.03.04-.05.08-.07.14.08.16.11.37.02.75Z"/>
          <path class="cls-4" d="M186.75,142.31c-.04.07-.08.16-.11.24,0,.13.02.28.03.41l.08-.66Z"/>
          <path class="cls-4" d="M151.19,292.42c-.16.29-.33.46-.51.6.4-.2.54,1.72.51-.6Z"/>
          <path class="cls-4" d="M181.06,328.74c-.07-.14-.07-.26.01-.42-.07.11-.14.22-.21.33.05.08.11.13.2.09Z"/>
          <path class="cls-4" d="M182.32,154.86l.08-2.08c-.05.58-.08,1.34-.08,2.08Z"/>
          <path class="cls-4" d="M151.11,198.57l.07.48c.01-.18,0-.35-.07-.48Z"/>
          <path class="cls-4" d="M182.32,146.61c.2-.37.31-.76.39-1.17-.04-.09-.08-.18-.15-.24l-.24,1.41Z"/>
          <path class="cls-4" d="M150.68,293.02h0s0,0,0,0Z"/>
          <path class="cls-4" d="M152.01,306.71c.02-1.98-.72-.93-1.15-1.35-.21-2.36.54-1.09.92-1.9-.2-1.48-.87-2.61-.85-3.71.12-.08.17-.3.32-.05-.59-1.56-.03-4.63-.77-6.45.07-.14.13-.2.18-.24-.37.29-.75.34-1.01.28-.01-.89-.47-1.65.02-1.98-.01.54.18.59.33.84l-.21-.93c.69-.84.24,1.27.75,1.27-.23-1.81-.8-3.93-.6-5.32.68-.29.23,3.25.83,1.4l-.26,2.15c1.07-1.64-.07,1.31,1.07-.2.2-2.83-.35-3.17-.15-5.99-.38-.64-.56.21-.94-.43-.68-4.01,1.71-3.16.8-6.11-.45-.76-1.31-1.06-.86-3.16l.77.72c.08-2.74-1.1-1.56-.59-4.43.3.51.25,2.15.35,1.74.61-1.86-.44-1.32-.44-2.74l.68-.3c-.11-2.92-.6-6.13-.72-9.36.2.18.41.73.62-.02-.34-4.07.08-8.7.49-12.63l-.59-1.5c0-.35.27-.65.38-.27.22-1.53-.37-.08-.6-.82-.04-.87.34-1.15.51-.6-.5-2.7-1.07-7.7-.44-10.55l.17.56c.24-2.22-1.2-2.5-.66-4.56l.1.39c.25-4.81-.28-10.13.6-13.81-.85-.7.38-4.76-.8-5.07.58-2.75.8-1.96,1.19-5.83.05-1.03-.74-1.54-.86-2.82l.62-.03-.65-1.74.74-.92-.16-1.2c-.04.48-.28,1.02-.45.94-.28-1.87.43-4.56.74-4.61l-.52-4.43c.25.1.33.84.49,1.43-.63-2.36.65-.43.07-2.6-.14.29-.37-.16-.49-.21.37-1.08.38-3.54.22-5.36l.42.35c.11-3.29-.2-6.93-.2-10.62-.2,1.32-.93,1.02-1.01-.06l.65-.43c-.4-.7-.25,1.13-.74-.3.08-1.38.74-.93.95-.14l-.23-1.67c.19-.1.3.29.55.4-.4-.69.65-2.89-.05-3.88l.19-.09c0-3.69-.22-5.36-.25-8.36-.56-.06-.44-1.23-.89-2.13.18-2.21.62-4.66.57-7.32-.28-1.87-.48-.55-.81-1.39.51-.14.46-2.79.83-1.42-.08-3.19-.1-4.08-.52-8.11-.21.44-.3.93-.48.68-.08-.73.21-1.67.46-1.56l.05.19c-.77-4.53,1.49-10.46.43-14.06l.05.2-.56-3.74c.09-1.72.38,1.03.7-.24-.21-1-.32-1.94-.34-2.72,0-.72.04-1.39.2-2.02.1-.64.35-1.22.49-1.85.23-.6.37-1.24.58-1.94,1.14-.67,2.07-2.24,3.49-3.65,1.37-1.42,3.24-2.6,4.75-2.56l-.27-.28c.59-.61.93-.05,1.46-.13-.13-.25-.86-.11-.46-.41.38-.13.77-.25,1.18-.31.4-.07.8-.17,1.22-.18.43-.02.78-.07,1.29-.06h1.46c.97.03,1.96.06,2.93.11l1.25.13,1.22.26c3.23.85,5.93,3.01,7.62,5.61.34.45.58.73.87.88.27.16.57.21.82.31.48.2,1.04.57,1.15,2.18-.31-.21-.62-.4-.92-.58.65,1.01.95,2.21,1.16,3.41.13,1.12.1,2.71.09,4.15-.02,2.93-.06,5.84.28,8.65-.15-.34-.35-.35-.35-.89-.48,1.19-.02,4.4.37,4.42-.04.88-.35.2-.55.74-.28,1.19.61,2.99.14,3.63-.08.11-.16-.34-.19-.55.23.78-.06,3.62.49,2.88-.26,2.11.25,4.04-.08,5.73.62,1.1-.3,3.62.58,3.97-.9-.15-.73,3.71-.3,5.04-.27-.45-.28,1.16-.66.64.01,1.53.18,2.92.65,2.66-1.08,2.81.87,5.65-.52,7.23.49,4.53.82,8.72,1.03,12.8-.9-.15-.09-4.5-1.04-4.33.37,3.87,1.15,6.1.93,9.93-.12.99-.39-.56-.55-.9.37,3.86-.08,7.47.41,10.91-.08,0-.18-.38-.24-.73.03.68-.13,1.58.28,1.5l-.11-.66c.6-1.08,1.24,2.69,1.56,2.81-1.18-1.15-.3,3.39-1.78,1.57.08.45.27,1.01.55.9-.08.66-.24.87-.55.2.22,2.43.66,1.56.65,3.76-.2,0-.28-.45-.51-.68.39,1.11.77,2.23.61,4.09-.12-.11-.28.1-.27-.45.06,3.19,1.03,5.44.66,8.94-.86-1.03-.28,1.19-1.03,1.38l.22,1.88.36-.76c-.01,1.65.53,3.11.29,4.52l-.31-1.23.14,3.09.28-1.75c.38,1.67.94-.18.74,2.02-.08-.45,0,1.65-.45,2.51h0c.24.81.49,1.65.3,2.87-.24.32-.83-.25-.98-.05.62.8.17,3.86.84,4.88-.16-.34-.55-.36-.63-.25l.51.68c-.16.76-.24.88-.55.75-.09,2.3.95-.73.54,2-.04-.21-.12-.11-.19-.56-.21,2.74.32,5.29.07,7.81-.75.74-.18-2.2-.82-1.35.14,3.63.9,7.51.72,11.02l.08-.65c1.06.49-.52,2.61-.02,4.39-.08-.43-.59-.57-.47-.45-.17,2.4.26,4.92.59,8.56l-.27-.45c-.24,1.42-.14,3.73-.26,5.26.27.45.23,1.33.62.8-1.55,4.72.83,9-.46,13.19,0-.5-.24-1.19-.24-.79l.25,3.57c.46-.28.28-.47.64-1.22.27.45.49,1.46.49,2.34-.31-1.6-.74.01-1,.71.14-.12.3.12.44.06-.82,1.86.93.31.38,2.86l-.24-.13c.12.95.44,1.83.38,2.86-.53.43-.25-1.01-.69-1.08.03,1.44,1.01,2.85.48,4.15-.15-.61-.15-1.49-.3-2.11-.63,1.42-.47,1.59-.57,2.64v-.1s-.27,2.44-.27,2.44l.17-.62c1.39,1.8.25,3.67,1.17,6.1-.86-2.36-.5-.39-1.11-.57-.17.62-.36,1.56-.53,1.3.49,1.15-.39,1.92.33,3.54-.2.07-.02,1.23-.51.97.15,1.49.34-.35.58-.23.67,2.3-.81,5.41.11,8.72.08.69.15,1.2.25,1.68.06.47.12.88.19,1.29.08.42.07.82.08,1.3.01.48-.07,1.01-.23,1.66-.3.37-.4.12-.43-.2-.03-.32,0-.72,0-.72-.37.61-.62,1.15-.89,1.67-.23.54-.47,1.07-.72,1.69,0-.32-.27-.16-.65.05-.58.81.2,1.01-.93,1.85,0-.32-.05-.75.05-1.28-.26.54-.6,1.02-.89,1.57-.35.49-.68,1.04-1.14,1.48-.24-.03-.16-.25-.01-.51.14-.27.35-.6.43-.82-.43.53-1.09,1.12-1.65,1.66-.59.51-1.07,1.01-1.16,1.32.31-.07.61-.17.9-.28-.44.3-.45-.26-.19-.54.41-.48.78-.67,1.08-.76.3-.07.55,0,.64.05l-.66.65c.69.19,1.48-.41,2.11-1.28.66-.85,1.14-1.94,1.69-2.65.07.36.14.74.2,1.12l.31-.99c.08-.33.14-.67.21-1,.39-.23.96-.26.56.62,1.1-.99.32-1.21,1.28-2.08.11-.1.14-.02.11.1.1-.46.17-.92.25-1.38.07.31.64-.03.23.74.16-.27.3-.55.42-.81.09-.27.16-.54.21-.79.11-.51.15-.97.13-1.39,0-.42-.02-.78.02-1.09.02-.31.08-.58.25-.81l.04.21c-.04-1.77-.25-1.78-.44-1.78-.21.02-.47.15-.83-1.1l1.51-1.68-.61-.33c.02-.34.07-1.02.31-.9-.42-1.28-.27.22-.66-.52.56-1.65-.26-4.56.71-4.93-.46-.59-.36,1.58-.68-.18,1.05-.5-.18-2.04.3-3.55.54.46.25,1.89.74.38-.91-.91.2-2.94.03-4.21-.73-.06-.3-2.77-.55-4.91.24.14.4-4.02.66-6.01l.12.06c-.73-.38-.6-2.44-.75-3.93.44.06.61.33.81,1.14v-1.4c-.24-.33-.36-.77-.45-1.68l.55.35c-.03-1.87-.65-3.76-.28-6.17-.51-.14-1.43,1.91-1.77-.63.28-.09.75-.19.86.48-.04-.22-.23-.78-.11-1.22l.47,1.02c.2-1.09-.39-.57-.35-1.45.39.02.28-.65.6-.52.04.22-.16.76,0,1.1.07-.99.3-2.18.6-2.57-.22.09-.53,0-.58-.72-.03-1.87.47-.64.68-1.73-.27-.45,0-1.64-.58-1.68,0-.55.28-.65.44-.86-.26-.97-.07-4.52-.7-3.43l-.04.25s-.02-.1-.03-.16h0s0,0,0,0c-.59-3.17.33-6.58.08-9.73h.2c-.23-1.87-.13-4.17-.56-5.51,0-.56.36-1.31.6-1.07-.15-1.44-.37-1.6-.04-3.67.34,1.44.31-.5.25,1.48.17-1.86.49-2.29-.05-4.29.51.68.64-1.4.49-2.29l-.36,1.31c-.07-1-.03-1.87.01-2.75l.67.48c.81-3.82-1.38-6.88-.02-9.79-.47-1.01-.33,2.07-.87,1.17.09-1.76,1.04-3.58,1.05-4.13.37-2.4-.97-2.24-.72-4.76-.24.32-.87.63-1.09-1.25.09-1.76,1-2.16,1.19-1.05.02.42-.06.62-.14.61.09.57.19,1.31.45.62l-.24-.23c.24-.87.22-3.29.61-2.72-.23-1.33-.39-.57-.51.42.34-2.25.01-3.52.24-5.84-.13.37-.41.71-.41.34.29-3.4-.45-1.5-.55-3.8.36-1.31.86.47.56-1.85.25-1.42.63-.3.82.26-.46-2.11.3-3.95.38-5.16l.19,1.11c-.11-.67-.11-1.21-.11-1.77l-.47.64c.08-.65.08-1.21.28-1.19-.31-.67-.79.52-1.21-.82.24-.87-.26-2.65.37-2.96-.21,2.74.63-.3.73,2.02-.08-.45-.07-.99.01-1.65.07-.1.13.09.17.27.56-2.62-.71-1.21-.7-3.92.36.35.67-.63.6-1.07,0,1.1-.59.52-.86-.48.28-1.74-.21-1.89-.17-2.81l-.13,1.04c-.35-.35-.31-1.22-.42-2.44.28-.1.19,1.1.31.67-.62-1.35.65-3.05.23-4.93.24-.87.67-.08.83-.85-.46-2.11.49-2.28.11-4.5-.48.64-.36.75-.83-.81l.34,3.64-.69-2.34c0,1.1.3,2.32.22,2.98-.39-1.11-.27-1-.67-.47.72-1.5-.42-2.98.07-4.72l1.18.05c.53-2.61-.61-4.65-.31-8.04l-.21,1.09c-.47-.46-.07-2.1-.26-3.2.39.1.54-.58.78-1.05-.29.06.03-2.48-.76-2.79l.52-1.52c.21-2.74-1.12-3.13-.99-5.76.43.79.71-.4,1.02,1.36,0-.88.08-1.67-.2-1.68.25-.51-.53-2.44-.16-3.25-.17-.37-.59-.49-.55-1.48.08-.11.19,0,.19,0-.19,0-.27-1.55-.7-.68,1.23-2.71-.09-7.57.97-9.93-.13-1.92-.26-4.23-.29-5.98.12.11.2,0,.16.34.37-2.4-1.13-1.48-.72-4.21.64-1.4.35,1.45.59.58,1.3-.38-.18-3.3.58-5.14l.08.45c.44-1.41-.49-3.43-.4-5.73,0,0,.11.11.2.01-.33-.79-.55-1.92-.71-3.14-.08-.61-.14-1.23-.21-1.86-.1-.64-.15-1.27-.27-1.83.59.66.34,1.04.84.54-.16-1.05-.76.35-1.2-1.64.16-.69,0-2.22.42-2.59.27.63.39,1.31.58,1.96.21-.58.07-1.26-.23-1.87-.32-.61-.65-1.2-.85-1.7h.34c-.71-1.45-1.38-2-1.98-2.58-.33-.27-.65-.55-1.02-.92-.38-.36-.83-.79-1.39-1.39.03.13.05.27.07.41-1.8-.63-.79-1.37-2.57-1.97.01-.33,0-.63-.02-.95-.28-.11-.67-.27-1.13-.45-.47-.14-1-.3-1.57-.46-.57-.12-1.16-.24-1.74-.36-.59-.07-1.15-.16-1.66-.24.32-.09.71-.11,1.15-.12.45-.02.93.02,1.42.11,1,.12,1.99.46,2.79.68-.26-.16-.64-.32-1.06-.52-.21-.09-.43-.19-.65-.29-.23-.07-.47-.15-.7-.22-.92-.31-1.82-.38-2.16-.27.48.06,1.14-.02,1.55.29-1.6.13-3.45,0-5.71-.01.19-.77-1.23-.86-2.91-.92-1.6-.1-3.8.02-4.76-.36-2.11.67-4.15,1.37-6.15,2.45-1.99,1.07-3.94,2.56-5.43,4.7,1.02-.38.8-.06.48.38-.34.43-.67,1.09-.08,1.28-.54.99-.7,1.38-.82,1.43-.36.46-.72.92-1.02,1.44-.32.5-.63,1.02-.88,1.57-.55.74,0-1.17-.24-1.14-.42,1.25-.59,1.51-.79,1.64-.2.13-.41.14-.7,1.02.5-.29.41,1.01.23,2.54.23-.72.42-1.42.74-2.08.09,1.84-.11,2.64-.39,3.3-.26.7-.52,1.4-.19,3.02l-.38-1.03c.23,1.66,0,6.14.97,7.77-.14.29-.48.68-.56-.05-.15,3.98,1.05,8.85.44,11.94l-.3-.3c.09.74.56,1.29.26,2.22-.12-.05-.3-.3-.32.04.1.39.52,1.97.35,2.95l-.34-.84c-.39,3.88.82,5.95,1.02,9.21-.88,0-1.17,3.04-1.31,4.57l-.12-.05c-.11,4.52.73,7.67,1.08,11.86-.96,2.6-.4,8.8-.94,12.97.16-.64.69.1.77.85-.18.98.61,2.71-.2,2.55l.02-.35c-.79.74-.58,2.75-.6,4.32l1.06.26c-1.54,4.11.56,10.77-.81,13.01.26.99.26,2.22.52,3.2l-.57-.05c-.14,2.75-.22,4.12-.08,7.52l-.4-.69c-.04,1.92,1.63,2.42,1.67,4.19l-.85.53c.01,3.34-.73,6.73.04,10.03-.12-.05-.37-.15-.4-.69-.02,1.57-.57,6.09.59,5.52-.76.04-.07,3.45.26,5.25l-.56-.28c.71,1.52.91,1.57,1.1,3.7-.07.5-.45.44-.3-.23-.29,1.68.53,1.31.23,3.35l-.36-.76c-.04,1.73.15,1.59.56,2.54.22,1.09-.14,3.28-.64,3.54.31.23.72,1.18.57,2.2-.19.14-.31-.23-.37-.42-.38,2.89.65,4.3.1,6.29-.18.04-.28.17-.33.34.01-2.3.04-4.15.08-3.97-.51,0-.6,1.86-1.31.38.39,1.49,1.23,4.04.99,5.84-.05.09-.1.17-.18.24l-.06-.19c-.05.42,0,.79.08,1.14-.08.58-.15.94-.15,1.5-.42.21-.23,2.13-.25,3.05.56-.08.47,1.13.94,0-.04.15-.07-.17-.09-.79-.02-.14-.02-.3-.06-.39.01.02.03.04.05.06,0-.61-.02-1.4-.04-2.3.29.73.53,1.49.21,2.52.36.47.73,1,.91,1.29-.78,1.27-1.21,3.71-1.69,4.05.32,2.82.21,6.65,1.26,8.43.14.8-.3.92-.47,1.22-.11-.46-.09-1.02-.24-1.27.27,1.61.11,4.76.84,5.14-.33,2.02-.68-1.14-.56,1.64l-.23-.38c-1.18,5.47,1.88,8.89.37,14.96.09-.42.14-.63.26-.72-.33,3.46-.18,7.02-.07,10.57.05,1.78.1,3.55.06,5.3-.02.88-.06,1.75-.13,2.62-.06.87-.18,1.69-.25,2.66-.08,1.07.15,1.65.33,2.1.19.46.52.77.84,1.33l-.47.6c.46.63.9,1.24,1.41,1.78.43.63.71,1.26,1,1.89.25.66.54,1.28.85,1.96.67,1.28,1.62,2.71,3.54,3.43l-.16-.63c.51.47,1.49.98,2.27,1.39.8.38,1.41.7,1.22.86.17-.02.58-.24,1.01.15l-.06.31c1.15.2,2.3.27,3.42.23,1.27.25,1.17.51,1.2.82.02.15.07.29.38.42.33.13.83.21,1.73.22,1.35-.12,3.84-.92,3.33-1.13-.54-.02-1.39-.2-1.43-.51l1.23-.16c.22-.93,1.17-1.88-1.85-2.54l-2.11.57c-.23-.15-.46-.3-.64-.46.52.02,1.16-.01,1.74-.02-.5-.21-.91-.22-1.29-.15-.39.08-.63.2-.96.32-.13-.25-.38-.42-.71-.54-.6.18-1.25.45-1.91.55-.11-.41.93-.51-.15-.99-.93.19.58,1-.88.89-.71-.74-.34-.89-1.42-1-.03-.28.23-.32.63-.25-.46-.06-1.02-.27-1.52-.5-.49-.24-.97-.4-1.3-.36-.47-.9-2.49-1.95-1.75-2.52-.35-.03-1.58-.75-2.06-1.48.84.37.45-.32,0-1.1-.19-.41-.38-.86-.46-1.21-.05-.36.03-.6.32-.62-.64-.32-1.07-1.25-1.3-2.34-.05-.27-.11-.55-.16-.84-.03-.29-.06-.57-.09-.86-.08-.53-.14-1.22-.27-1.8.08.13.23.38.18.59.08-1.3.36-1.68.54-2.52-.78-.17-.96-2.2-1.45-3.3.76-1.6.92.97,1.65.47-.64.08-.63-2.78-1.16-2.24.47-1.22.23-1.05.88-1.68-.98-.21-.17-1.14-.77-2.15.48-1.77.92-.46.62-2.4.3-.93.65.8.65.8ZM150.32,260.46h.01c.01.4.02.74.03.95,0-.2-.02-.47-.04-.95ZM150.31,256.57c-.02.47-.03,1.06-.02,1.69-.19.14-.39-.01-.38-.4.13.21.24-.7.41-1.28ZM146.41,264.8c-.08-.62.03-.82.15-.91,0,.29.03.63.07,1.08.02.02.05.05.07.07-.11-.06-.21-.13-.28-.24Z"/>
          <path class="cls-4" d="M147.15,265.9c.01.09.04.14.04.25.05-.13.09-.25.13-.37-.06-.07-.12-.15-.18-.22,0,.11,0,.23,0,.33Z"/>
          <path class="cls-4" d="M185.98,267.93v-.08c0,.07-.03.13-.07.17.03-.05.04-.05.07-.09Z"/>
          <polygon class="cls-4" points="151.39 202.9 151.24 202.91 151.37 203.25 151.39 202.9"/>
          <path class="cls-4" d="M184.05,289.34s-.1.12-.14.28c.04-.01.09-.13.14-.28Z"/>
          <path class="cls-4" d="M183.92,298.59l-.2,1.31c.11-.57.17-.98.2-1.31Z"/>
          <path class="cls-4" d="M183.65,305.7c.1.09.17.12.24.14,0,0,0-.01,0-.01l-.24-.13Z"/>
          <path class="cls-4" d="M182.99,192.65c0-.1-.01-.19-.03-.27-.11-.64-.07-.21.03.27Z"/>
          <path class="cls-4" d="M184.3,226.29c-.1-.36-.2-.71-.27-1.08-.04.6-.05,1.06.27,1.08Z"/>
          <path class="cls-4" d="M182.31,155.09s0,0,0,0v-.23.23Z"/>
          <path class="cls-4" d="M184.04,223.65c-.11.6-.09,1.1,0,1.56.04-.49.1-1.07,0-1.56Z"/>
          <path class="cls-4" d="M176.66,332.35l-.27.14s.02.06.01.1l.26-.24Z"/>
          <path class="cls-4" d="M176.4,332.58l-.26.24c.13-.08.25-.16.26-.24Z"/>
          <path class="cls-4" d="M175.56,333.26c.2-.15.4-.29.58-.44-.22.12-.51.23-.58.44Z"/>
          <path class="cls-4" d="M182.36,326.28l-.14-.17c.02.06.06.12.14.17Z"/>
          <path class="cls-4" d="M183.15,323.82c-.17.6-.84,1.33-1.05,2.15l.11.14c-.11-.45,1.15-1.59.93-2.28Z"/>
          <path class="cls-4" d="M186.11,312.3l-.16,2.4c.22-.42.51-.97.56.12.65-3.02-.49.62-.4-2.52Z"/>
          <path class="cls-4" d="M186.43,304.87c.1,1.29.32-.02.44.05-.2-.82-.25-1.01-.44-.05Z"/>
          <path class="cls-4" d="M186.43,251.16l.51.13c-.07-.99-.2,0-.51-.13Z"/>
          <polygon class="cls-4" points="183.78 240.9 183.47 241.86 183.94 242.32 183.78 240.9"/>
          <polygon class="cls-4" points="187.43 234.83 187.5 235.27 187.32 233.61 187.43 234.83"/>
          <path class="cls-4" d="M187.25,144.64l-.63.3c.11.67.82.81.63-.3Z"/>
          <path class="cls-4" d="M181.68,105.86c-.03-.29-.27-.65-.57-1-.3-.35-.69-.66-1.09-.75.39.29.69.68.96,1.01.27.33.52.58.7.74Z"/>
          <polygon class="cls-4" points="146.33 192.58 146.12 191.79 146.3 193.27 146.33 192.58"/>
        </g>
      </g>
      <g>
        <rect class="cls-2" x="3.24" y="2.97" width="327.49" height="177.48" rx="15.84" ry="15.84"/>
        <g>
          <path class="cls-4" d="M314.89,179.12c-.52.17-.2.58,1.14.43.3-.22.59-.49.86-.76-.65.2-1.32.22-2,.33Z"/>
          <path class="cls-4" d="M323.84,177.54c.29-.32.57-.65.82-.97.23-.34.4-.67.52-.94.22-.55.14-.87-.43-.76-.33.74-.63,1.14-.97,1.5-.17.19-.33.39-.52.64-.2.23-.43.51-.7.9-1.18.76-2.26.85-2.13.53-.19.15-.69.32-1.22.48-.54.12-1.09.32-1.41.58,1.83.17,4.21-.64,5.89-2.39.49-.19.2.25.17.42Z"/>
          <path class="cls-4" d="M331.66,40.54l-.08.9c.04-.24.07-.55.08-.9Z"/>
          <path class="cls-4" d="M275.14,1.68c.66-.02.93-.08.97-.14-.61.04-1.11.08-.97.14Z"/>
          <path class="cls-4" d="M260.4.95c.32.02.58.03.87.04-.33-.06-.66-.09-.87-.04Z"/>
          <path class="cls-4" d="M331.66,40.54l.21-2.31c-.22-.16-.16,1.18-.21,2.31Z"/>
          <path class="cls-4" d="M329.03,160.68c.03.48.09.89.17,1.25-.02-.4-.05-.78-.07-1.18-.04-.02-.07-.04-.1-.08Z"/>
          <path class="cls-4" d="M332.19,78.6v.7c.08.21.17.4.27.58l-.27-1.28Z"/>
          <path class="cls-4" d="M332.29,107.81c.02-.66-.54-.89-.78-1.14.23.37.34.86.39,1.44.11.01.23-.08.4-.3Z"/>
          <path class="cls-4" d="M331.31,154.13l.08.82c-.02-.21-.05-.57-.08-.82Z"/>
          <path class="cls-4" d="M332.31,57.69c.08-.05.16-.15.2-.27-.07,0-.14.1-.2.27Z"/>
          <path class="cls-4" d="M281.02,177.81s0,.07,0,.1c.17-.06.22-.1,0-.1Z"/>
          <path class="cls-4" d="M314.89,180.6l-.47.03c-.05.11-.1.21-.1.32l.57-.35Z"/>
          <path class="cls-4" d="M233.41.23c.05,0,.07,0,.12.01.71-.06.31-.05-.12-.01Z"/>
          <path class="cls-4" d="M.91,27.29c.5-2.81.64,4.57,1.2.34-.22.39-.88-3.84-1.2-.34Z"/>
          <path class="cls-4" d="M329.1,159.92c0-.39,0-.8,0-1.2-.02.55-.02.91,0,1.2Z"/>
          <path class="cls-4" d="M2.11,27.63h0l.05-.44c-.02.18-.04.28-.06.44Z"/>
          <path class="cls-4" d="M171.25.57c.13.1.38.17.63.25-.02-.06-.16-.13-.63-.25Z"/>
          <path class="cls-4" d="M217.56,1.37l-1.15-.08c.45.05.82.07,1.15.08Z"/>
          <path class="cls-4" d="M147.2,1.36c-.62-.04-.83-.12-1.69-.04.08.03.16.05.26.07.31-.08.72-.11,1.43-.02Z"/>
          <path class="cls-4" d="M122.17,1.37c.13.04.31.08.46.11.25,0,.54-.02.79-.03l-1.25-.08Z"/>
          <path class="cls-4" d="M204.96,178.08c.55.16.89.33,1.16.51-.39-.4,3.29-.54-1.16-.51Z"/>
          <path class="cls-4" d="M329.34,160.67c-.14-.15-.21-.36-.24-.74.01.29.02.56.03.83.08.07.16.09.21-.09Z"/>
          <path class="cls-4" d="M146.18,5.8l-3.98-.08c1.11.05,2.56.08,3.98.08Z"/>
          <path class="cls-4" d="M25.41,178.16l.91-.07c-.35-.01-.68,0-.91.07Z"/>
          <path class="cls-4" d="M130.41,5.8c-.71-.2-1.46-.31-2.24-.39-.16.04-.35.08-.46.15l2.7.24Z"/>
          <path class="cls-4" d="M206.13,178.59s0,0,0,0c0,0,0,0,0,0Z"/>
          <path class="cls-4" d="M232.32,177.26c-3.79-.02-1.78.72-2.58,1.15-4.52.21-2.09-.54-3.63-.92-2.82.2-4.99.87-7.1.85-.16-.12-.57-.17-.09-.32-2.99.59-8.86.03-12.34.77-.26-.07-.39-.13-.45-.18.56.37.65.75.53,1.01-1.7.01-3.15.47-3.79-.02,1.04.01,1.13-.18,1.62-.33l-1.78.21c-1.6-.69,2.43-.24,2.43-.75-3.47.23-7.52.8-10.17.6-.56-.68,6.22-.23,2.67-.83l4.12.26c-3.14-1.07,2.5.07-.39-1.07-5.42-.2-6.06.35-11.46.15-1.22.38.4.56-.81.94-7.68.68-6.04-1.71-11.69-.8-1.46.45-2.03,1.31-6.05.86l1.37-.77c-5.24-.08-2.99,1.1-8.48.59.98-.3,4.12-.25,3.33-.35-3.56-.61-2.52.44-5.25.44l-.57-.68c-5.58.11-11.73.6-17.91.72.34-.2,1.4-.41-.04-.62-7.8.34-16.64-.08-24.16-.49l-2.87.59c-.67,0-1.24-.27-.52-.38-2.93-.22-.15.37-1.56.6-1.67.04-2.2-.34-1.15-.51-5.17.5-14.73,1.07-20.18.44l1.06-.17c-4.24-.24-4.79,1.2-8.72.66l.75-.1c-9.21-.25-19.39.28-26.41-.6-1.34.85-9.12-.38-9.71.8-5.26-.58-3.75-.8-11.16-1.19-1.98-.05-2.95.74-5.39.86l-.06-.62-3.32.65-1.77-.74-2.29.16c.91.04,1.94.28,1.8.45-3.58.28-8.73-.43-8.82-.74-1.25.05-2.4.07-3.6-.19-1.19-.19-2.34-.6-3.45-1.12.13-.06.46.05.9.16.21.07.44.14.68.22.24.06.49.11.73.15-1.88-.41-1.95-.73-1.98-.92-.01-.11-.02-.21-.22-.37-.2-.15-.6-.35-1.37-.76.29.39-.43.14-.58.19-.55-.73-1.55-1.76-2.4-3.09-.86-1.32-1.58-2.9-1.98-4.32l.55.43c-.08-.31-.15-.63-.23-.94-.05-.32-.09-.65-.14-.97-.07-.32-.06-.66-.08-.99-.02-.34-.05-.64-.04-1.09-.02-1.65-.05-3.33-.07-5.03-.06-3.41-.14-6.92-.14-10.44-.2,2.53-.93,1.95-1.01-.12l.65-.83c-.4-1.34-.25,2.16-.74-.58.08-2.64.74-1.77.95-.26l-.23-3.2c.19-.19.3.56.54.76-.4-1.31.65-5.53-.05-7.43l.19-.18c0-7.05-.22-10.25-.25-16-.56-.11-.44-2.36-.89-4.07.18-4.22.62-8.91.57-14-.28-3.58-.48-1.04-.81-2.65.51-.26.46-5.34.83-2.71-.08-6.11-.1-7.8-.52-15.52-.21.84-.3,1.78-.48,1.29-.08-1.4.21-3.19.46-2.99l.05.37c-.77-8.67,1.49-20.01.43-26.91l.05.39-.56-7.16c.09-3.29.38,1.98.7-.46-.86-7.72.12-12.2-.45-18.56.38-1.23.56-2.94.64-4.91.11-1.94-.05-4.37.16-6.09.22-1.88.88-3.76,1.89-5.28,1-1.53,2.32-2.67,3.57-3.24l-.46-.1c.46-.59.89-.75,1.27-.87.37-.13.76-.12,1.24-.3-.25-.2-1.53.41-.83-.17,1.33-.79,2.84-1.28,4.4-1.51.39-.08.78-.1,1.18-.11l.59-.03c.2,0,.46,0,.68,0,.93,0,1.86,0,2.79.01,3.73.03,7.49.12,11.27.23,7.55.22,15.15.54,22.61.7,5.45.1,3.1-1.84,9.97-.99l-1.95.66c11.01-.79,22.51.03,33.28-.65-.64.15-.66.35-1.71.35,2.28.48,8.42.02,8.46-.37,1.68.04.39.35,1.42.55,2.28.28,5.73-.61,6.94-.14.21.08-.64.16-1.06.19,1.49-.23,6.93.06,5.51-.49,4.04.26,7.74-.25,10.96.08,2.1-.62,6.92.3,7.59-.58-.29.9,7.09.73,9.65.3-.86.27,2.22.28,1.22.66,2.92-.01,5.59-.18,5.08-.65,5.38,1.08,10.81-.87,13.83.52,8.67-.49,16.69-.82,24.49-1.03-.28.9-8.62.09-8.29,1.04,7.4-.37,11.66-1.15,19-.93,1.9.12-1.08.39-1.72.55,7.39-.37,14.29.08,20.87-.41-.02.08-.73.18-1.4.24,1.3-.03,3.01.13,2.87-.28l-1.26.11c-2.07-.6,5.15-1.24,5.38-1.56-2.2,1.18,6.5.3,3,1.78.85-.08,1.92-.27,1.73-.55,1.27.08,1.67.24.38.55,4.64-.22,2.99-.66,7.2-.65-.01.2-.86.28-1.3.51,2.13-.39,4.27-.77,7.82-.61-.21.12.2.28-.86.27,6.1-.06,10.4-1.03,17.1-.66-1.98.86,2.28.28,2.63,1.03l3.6-.22-1.45-.36c3.15.01,5.94-.53,8.65-.29l-2.34.31,5.91-.14-3.35-.28c3.19-.38-.34-.94,3.86-.74-.85.08,3.16,0,4.8.45h-.01c1.56-.24,3.17-.49,5.5-.3.61.24-.49.83-.09.98,1.54-.62,7.39-.17,9.34-.84-.65.16-.68.55-.47.63l1.29-.51c1.46.16,1.67.24,1.44.55,4.4.09-1.4-.95,3.82-.54-.41.04-.21.12-1.07.19,2.62.11,5.15.03,7.63-.05,1.24-.04,2.46-.07,3.68-.09.62-.01,1.21,0,1.77.05.57.01,1.13.12,1.69.24.58.48-.38.34-1.31.29-.47,0-.93-.02-1.18.01-.28.05-.31.13.07.29,3.07-.03,6.35.79,9.03,2.73,2.65,1.91,4.68,4.82,5.27,7.92-.08-.38-.12-.77-.23-1.15.63.25.86,1.49.84,2.98-.08,1.45-.4,3.35-.14,5.04-.08-.83-.59-1.09-.47-.87-.17,4.6.26,9.41.59,16.38l-.27-.86c-.24,2.71-.14,7.14-.26,10.07.27.87.23,2.54.62,1.53-1.55,9.03.83,17.22-.46,25.23,0-.96-.24-2.28-.24-1.52l.25,6.82c.46-.54.28-.89.64-2.33.27.86.49,2.79.49,4.48-.31-3.07-.74.03-1,1.35.14-.22.3.23.44.12-.82,3.56.93.6.38,5.46l-.24-.26c.12,1.82.44,3.5.38,5.46-.53.81-.25-1.94-.69-2.06.03,2.76,1.01,5.44.48,7.94-.15-1.17-.15-2.86-.3-4.03-.63,2.72-.47,3.03-.57,5.05v-.2s-.27,4.67-.27,4.67l.17-1.19c1.39,3.45.25,7.03,1.17,11.68-.86-4.52-.5-.75-1.11-1.09-.17,1.19-.36,2.99-.53,2.48.49,2.2-.39,3.67.33,6.77-.2.14-.02,2.35-.51,1.86.15,2.86.34-.68.58-.43.67,4.4-.81,10.35.11,16.69.38,5.46,1.03,6.47,1.36,11.55-.31,1.71-.71-1.4-.71-1.4-.29,2.76-.23,4.84-.01,7.44-.17-.53-.31.02-.53.81.05,2.09.71,1.4.42,4.15-.22-.47-.57-1.08-.78-2.09.19,2.53.62,4.73.05,7.13-.26.25-.26-.13-.25-.68.02-.27.04-.58.06-.88,0-.3-.02-.59-.04-.79-.08,1.29-.49,2.95-1.05,4.32-.23.71-.59,1.3-.78,1.84-.25.5-.42.91-.44,1.16.39-.43.83-.85,1.17-1.34-.5.88-.65.18-.36-.48.77-2.15,1.51-2.92,1.79-2.99-.17.55-.29,1.13-.51,1.67.48-.28.8-.89,1.12-1.65.12-.39.23-.83.32-1.29.08-.46.1-.96.14-1.46.03-2-.41-4.29-.34-6.11l.83,1.52-.69-3.75c.22-.8.68-1.34.81.46.41-2.62-.3-2.32.16-4.57.07-.25.11-.14.14.09l-.25-2.56c.17.5.59-.43.47,1.15.48-4.59-.62-7.4,0-9.13l.05.38c-.28-6.37-.61-.62-1.33-5.39l1.51-3.22-.61-.63c.02-.66.07-1.96.31-1.72-.42-2.45-.27.42-.66-1,.56-3.16-.26-8.72.71-9.43-.46-1.14-.36,3.02-.68-.35,1.05-.96-.18-3.9.3-6.79.54.89.25,3.62.74.73-.91-1.74.2-5.63.03-8.06-.73-.11-.3-5.3-.55-9.39.24.26.4-7.7.66-11.5l.12.11c-.73-.74-.6-4.66-.75-7.52.44.11.61.63.81,2.17v-2.69c-.24-.63-.36-1.47-.45-3.21l.55.68c-.03-3.58-.65-7.2-.28-11.8-.51-.26-1.43,3.66-1.77-1.21.28-.18.75-.36.86.91-.04-.42-.23-1.49-.11-2.33l.47,1.94c.2-2.1-.39-1.1-.35-2.77.4.03.28-1.24.6-1,.04.43-.16,1.46,0,2.1.07-1.89.3-4.17.6-4.93-.22.16-.53,0-.58-1.38-.03-3.58.47-1.22.68-3.31-.27-.87,0-3.15-.58-3.21,0-1.05.28-1.24.44-1.64-.26-1.85-.07-8.64-.7-6.56l-.04.47c0-.09-.02-.19-.03-.3h0s0,0,0,0c-.59-6.07.33-12.6.08-18.62h.2c-.06-.89-.09-1.84-.12-2.8l-.04-1.44c-.04-.5-.07-1-.11-1.49-.22-1.96-.84-3.71-1.53-4.86-.22-.5-.43-1.12-.52-1.59-.12-.45-.14-.75.09-.6-.41-.61-.73-1.08-1.08-1.45-.34-.38-.6-.73-.96-1.07-.35-.34-.66-.76-1.16-1.21-.24-.24-.5-.5-.79-.79-.32-.27-.67-.58-1.07-.92,1.28.74,1.13.54,1.05.44-.09-.08-.04-.11,1.44,1.3-.68-.68-1.22-1.26-1.76-1.69-.52-.47-1.02-.82-1.54-1.15-1.04-.65-2.25-1.19-4.31-1.5.75-.06.1-.41-1.02-.76-.57-.12-1.24-.27-1.9-.32-.65-.03-1.31-.05-1.74-.02.88.17,1.82.27,2.69.56-.26-.03-.51-.06-.76-.09-.25,0-.5-.02-.74-.03-.48-.02-.98-.05-1.4-.05-.87-.02-1.71-.03-2.55-.05l.92-.67c-7.3-.81-13.17,1.38-18.73.02-1.93.47,3.97.33,2.24.87-3.36-.09-6.86-1.04-7.91-1.05-4.6-.37-4.29.97-9.11.72.62.24,1.2.87-2.4,1.09-3.36-.09-4.13-1-2.01-1.19.81-.02,1.2.06,1.16.14,1.09-.09,2.51-.19,1.18-.45l-.44.24c-1.67-.24-6.29-.22-5.21-.61-2.54.23-1.09.39.8.51-4.31-.34-6.74-.01-11.17-.24.71.13,1.36.41.65.41-6.51-.29-2.87.45-7.28.55-2.51-.36.9-.86-3.54-.56-2.71-.24-.57-.63.5-.82-4.04.46-7.56-.3-9.87-.38l2.13-.19c-1.27.11-2.32.11-3.38.11l1.22.47c-1.25-.08-2.31-.08-2.29-.28-1.29.31.99.79-1.57,1.21-1.67-.24-5.08.26-5.65-.37,5.25.21-.58-.63,3.86-.73-.86.08-1.9.07-3.16-.01-.19-.07.18-.13.52-.17-5.02-.56-2.31.71-7.51.7.66-.35-1.21-.67-2.05-.6,2.1,0,1,.59-.92.86-3.33-.28-3.62.21-5.37.17l1.99.13c-.68.35-2.34.31-4.67.42-.2-.28,2.11-.19,1.28-.31-2.58.62-5.83-.65-9.43-.23-1.67-.24-.16-.67-1.63-.83-4.03.46-4.37-.49-8.61-.11,1.22.48,1.44.36-1.55.83l6.97-.34-4.47.69c2.1,0,4.44-.3,5.7-.22-2.13.39-1.91.27-.91.67-2.88-.72-5.71.42-9.03-.07l.1-1.18c-5-.53-8.89.61-15.38.31l2.09.21c-.87.47-4.01.07-6.11.26.2-.4-1.12-.54-2.02-.78.11.29-4.75-.03-5.34.76l-2.9-.52c-5.25-.21-5.99,1.12-11.03.99,1.52-.43-.77-.71,2.6-1.02-1.68,0-3.2-.08-3.22.2-.98-.25-4.67.53-6.22.16-.71.17-.94.59-2.83.55-.21-.08,0-.19,0-.19,0,.19-2.96.27-1.31.7-5.19-1.23-14.49.09-19.01-.97-3.67.13-8.1.26-11.44.29.21-.12.01-.2.64-.16-4.6-.37-2.83,1.13-8.06.72-2.67-.64,2.78-.35,1.11-.59-.73-1.3-6.32.18-9.84-.58l.85-.08c-2.69-.44-6.57.49-10.97.4,0,0,.21-.11.03-.2-3.01.66-8.71.88-12.94,1.07,1.32-.51,1.92-.27,1.12-.79-1.9.07.56.83-3.23.97-1.23-.28-3.96-.52-4.33-1.07l3.57-.03c-1.83-.71-4.62.02-6.51-.1l.24-.31c-5.47.1-5.55.89-11.44.83l.61.24c-3.22.78-2.7-.44-5.9.14l-.97-.79c-2.12.19-7.43.76-11.24.91,2.16-.59,6.61-.88,9.36-1.23-2.1,0-7.15.06-8.24.45.85-.08,1.92-.27,2.75-.15-2.58.62-5.98.93-10.17.91.37-.77-2.36-.86-5.56-.92-.8-.01-1.63-.03-2.45-.04-.4-.02-.83-.01-1.28,0-.44.02-.87,0-1.29.04-.83.08-1.61.12-2.29.24-.68.07-1.27.13-1.72.16-3.88,1.66-7.24,4.34-9.52,8.05-1.13,1.85-1.97,3.95-2.37,6.22l-.15.86-.07.87-.06.88c-.01.29-.01.53-.02.79,0,1.04,0,2.1,0,3.18,1.19-3.06.03,2.52,1.26,1.99.08,2.01.06,2.78-.02,2.96l-.73,6.1c-.36,1.45-.27-1.91-.54-1.73-.09,4.4-.52,1.85-.84,4.76.44-.6.63,1.53.46,4.04l.56-3.54c.65,6.16-1.03,5.32-.38,11.53l-.38-1.96c.23,3.18,0,11.75.97,14.87-.14.56-.48,1.31-.56-.09-.15,7.61,1.05,16.94.44,22.85l-.3-.58c.09,1.42.56,2.47.26,4.25-.12-.09-.3-.57-.32.09.1.75.52,3.77.35,5.65l-.34-1.61c-.39,7.42.82,11.39,1.02,17.62-.88-.02-1.17,5.82-1.31,8.74l-.12-.1c-.11,8.64.73,14.68,1.08,22.69-.48,2.48-.58,6.69-.63,11.28-.02,2.29-.05,4.68-.07,6.99-.03,1.16-.06,2.29-.08,3.39-.02.55-.04,1.09-.07,1.62,0,.61,0,1.2,0,1.78.1-1.43.63.2,1.02,1.73.04.53.24,1.13.43,1.74.22.6.52,1.19.74,1.71.55,1.01.92,1.75.49,1.8l-.32-.69c0,.22.03.48.09.77.08.28.2.58.34.91.27.67.73,1.35,1.25,2.07,1.09,1.41,2.61,2.75,4.06,3.75.36-.19.71-.39,1.06-.59,1.63,1.49,4.05,2.66,6.73,3.08.67.14,1.35.16,2.04.19.73.04,1.25,0,1.88,0,1.21-.03,2.41-.07,3.59-.1,4.71-.16,8.96-.34,11.11.35,1.9-.26,4.25-.26,6.13-.52l-.1.57c5.26.14,7.88.22,14.38.08l-1.33.4c3.67.04,4.63-1.63,8.01-1.67l1.02.85c6.4-.01,12.87.73,19.19-.04-.1.12-.29.37-1.33.4,3.01.02,11.65.57,10.55-.59.07.76,6.6.07,10.05-.26l-.54.56c2.92-.71,3.01-.91,7.08-1.1.97.07.85.45-.44.3,3.22.29,2.51-.53,6.4-.23l-1.45.36c3.31.04,3.05-.15,4.87-.56,2.08-.22,6.28.14,6.76.64.45-.31,2.26-.72,4.21-.57.26.19-.45.31-.8.37,5.53.38,8.23-.65,12.03-.1.08.18.33.28.64.33-4.39-.01-7.93-.04-7.6-.08,0,.51,3.55.6.73,1.31,2.85-.39,7.72-1.23,11.18-.99.17.05.33.1.46.18l-.36.06c.8.05,1.51,0,2.19-.08,1.1.08,1.81.15,2.87.15.41.42,4.07.23,5.84.25-.15-.56,2.17-.47,0-.94.28.04-.33.07-1.51.09-.27.02-.58.03-.75.06.03-.01.08-.03.12-.05-1.16,0-2.68.02-4.4.04,1.4-.29,2.86-.53,4.82-.21.91-.36,1.91-.73,2.47-.91,2.42.78,7.09,1.21,7.74,1.69,5.4-.32,12.73-.21,16.13-1.26,1.54-.14,1.77.3,2.34.47-.89.11-1.94.09-2.42.24,3.07-.27,9.1-.11,9.84-.84,3.87.33-2.18.68,3.14.56l-.72.23c10.47,1.18,17.02-1.88,28.62-.37-.8-.09-1.21-.14-1.37-.26,13.23.67,27.27-.63,40.32.43,3.71.21,4.11-.26,6.38-.62l.8.6,3.87-.7c5.49-.51,9.51,1.48,16.46.52l-.9-.41c2.5.08,7.91-.24,7.49.23.26-.07.82-.42,1.79-.21l.08.32,6.13-.54c4.75.23-.74,1.25,6.19,1.32,2.58-.12,7.34-.92,6.38-1.13-1.04-.02-2.66-.2-2.74-.51l2.36-.16c.43-.93,2.24-1.88-3.55-2.54l-4.04.57-1.3-.45,3.4-.03c-1.93-.42-3.15-.05-4.52.21-.32-.24-.89-.41-1.69-.5l-3.96.89c-.48-.36,1.78-.72-.88-.92-1.86.41,1.78.82-1.29,1.09-1.93-.42-1.37-.77-3.63-.41-.32-.24.16-.39,1.06-.5-2.02.29-5.34.12-6.38.62-2.01-.52-6.81.14-6.61-.75-.63.21-3.55.69-5.4.73,3.38-1.06-6.93-.06-6.04-1.19-2.5.95-9.05.42-13.48.95.25-.08.74-.23,1.13-.18-2.5-.08-3.22-.36-4.83-.54-.32.78-4.21.96-6.31,1.45-3.06-.76,1.86-.92.9-1.65.15.64-5.32.63-4.28,1.16-2.34-.47-2.02-.23-3.22-.88-.41.98-2.18.17-4.12.77-3.39-.48-.87-.92-4.59-.62-1.77-.3,1.54-.65,1.54-.65ZM143.82,178.95h0c.76-.02,1.41-.04,1.83-.04-.38,0-.91.02-1.83.04ZM136.38,178.96c.91.02,2.03.03,3.23.02.26.19-.02.39-.77.38.41-.13-1.35-.24-2.46-.41ZM152.11,182.86c-1.18.08-1.57-.03-1.73-.15.56,0,1.21-.03,2.06-.07.03-.02.1-.04.14-.07-.11.11-.24.21-.46.28Z"/>
          <path class="cls-4" d="M154.23,182.12c.17-.01.26-.04.49-.04-.24-.05-.47-.09-.7-.13-.14.06-.29.12-.42.18.21,0,.44,0,.63,0Z"/>
          <path class="cls-4" d="M331.56,41.59v-.16c0,.13-.03.25-.07.33.03-.1.04-.1.07-.17Z"/>
          <polygon class="cls-4" points="33.69 177.89 33.7 178.03 34.35 177.9 33.69 177.89"/>
          <path class="cls-4" d="M329.64,82.55c-.05.08-.1.23-.14.54.04-.02.09-.26.14-.54Z"/>
          <path class="cls-4" d="M329.51,100.24l-.2,2.5c.11-1.08.17-1.87.2-2.5Z"/>
          <path class="cls-4" d="M329.23,113.85c.1.17.17.22.24.27,0-.01,0-.02,0-.03l-.24-.24Z"/>
          <path class="cls-4" d="M218.5,5.13c-.18,0-.36.01-.52.03-1.23.11-.39.07.52-.03Z"/>
          <path class="cls-4" d="M282.87,3.82c-.68.1-1.36.2-2.07.27,1.15.04,2.04.05,2.07-.27Z"/>
          <path class="cls-4" d="M146.62,5.81s0,0,0,0h-.44.44Z"/>
          <path class="cls-4" d="M277.8,4.08c1.15.11,2.1.09,2.99,0-.94-.04-2.05-.1-2.99,0Z"/>
          <path class="cls-4" d="M327.12,171.58l-.32.49s.04.06.04.11l.28-.59Z"/>
          <path class="cls-4" d="M326.84,172.17c-.09.2-.18.4-.3.58.19-.23.3-.47.3-.58Z"/>
          <path class="cls-4" d="M325.8,173.93c.28-.37.49-.79.73-1.18-.3.37-.63.85-.73,1.18Z"/>
          <path class="cls-4" d="M329.24,154.8l-.2-.21c.04.11.11.18.2.21Z"/>
          <path class="cls-4" d="M329.18,149.33c-.05,1.31-.43,3.28-.31,5.1l.16.17c-.3-.86.49-4.03.14-5.27Z"/>
          <path class="cls-4" d="M331.7,126.49l-.16,4.59c.22-.8.51-1.86.56.23.65-5.78-.49,1.19-.4-4.82Z"/>
          <path class="cls-4" d="M332.01,112.27c.1,2.46.32-.03.44.1-.2-1.56-.25-1.94-.44-.1Z"/>
          <path class="cls-4" d="M329.14,9.32l.57-.05c-1.27-1.69-.15.08-.57.05Z"/>
          <polygon class="cls-4" points="310.81 4.33 312.66 4.65 313.54 4.18 310.81 4.33"/>
          <polygon class="cls-4" points="299.21 .69 300.04 .62 296.87 .8 299.21 .69"/>
          <path class="cls-4" d="M126.63.87l.57.63c1.28-.11,1.55-.82-.57-.63Z"/>
          <path class="cls-4" d="M52.12,1.51c-.81-.32-2.91-.52-4.2-.21,1.67.04,3.35.29,4.2.21Z"/>
          <path class="cls-4" d="M13.23,181.97c-.56-.14-1.15-.24-1.7-.44,1.03.38,2.09.71,3.17.9-.49-.15-.99-.25-1.47-.46Z"/>
        </g>
      </g>
      <text class="cls-1" transform="translate(127.11 80.48)"><tspan x="0" y="0">Your </tspan><tspan class="cls-3" x="-76.37" y="43.2">D</tspan><tspan x="-56" y="43.2">ai</tspan><tspan class="cls-5" x="-22.7" y="43.2">l</tspan><tspan x="-8.62" y="43.2">y Advice!</tspan></text>
    </g>
  </g>
</svg>