<?xml version="1.0" encoding="UTF-8"?>
<svg id="Layer_1" data-name="Layer 1" xmlns="http://www.w3.org/2000/svg" viewBox="0 0 127.33 127.05">
  <defs>
    <style>
      .cls-1 {
        fill: none;
        stroke: #183b4e;
        stroke-linecap: round;
        stroke-linejoin: round;
        stroke-width: 8px;
      }

      .cls-2 {
        fill: #183b4e;
      }
    </style>
  </defs>
  <path class="cls-2" d="M26.85,38.29H10.32c-3.9,0-7.07,3.16-7.07,7.07v37.64c0,3.9,3.16,7.07,7.07,7.07h16.52c1.48,0,2.92.46,4.12,1.32l32.66,29.92c4.68,3.35,11.19.01,11.19-5.74V12.8c0-5.75-6.51-9.1-11.19-5.74l-32.66,29.91c-1.2.86-2.64,1.32-4.12,1.32Z"/>
  <path class="cls-1" d="M84.01,74.95s4.66-6.63,4.66-14.8-4.66-14.8-4.66-14.8"/>
  <path class="cls-1" d="M94.06,91.39s9.83-13.98,9.83-31.24-9.83-31.24-9.83-31.24"/>
  <path class="cls-1" d="M106.37,103.15s13.53-19.25,13.53-42.99-13.53-42.99-13.53-42.99"/>
</svg>